<?xml version="1.0" encoding="UTF-8" standalone="no"?>
<svg xmlns="http://www.w3.org/2000/svg" width="1280" height="386" viewBox="0 0 1280 386">
<desc id="desc1">Created with Fabric.js 5.3.0</desc>
<defs id="defs1">
</defs>
<g
   transform="translate(640,512)"
   id="background-logo">
<rect
   style="opacity:1;fill:#ffffff;fill-opacity:0;fill-rule:nonzero;stroke:none;stroke-width:0;stroke-linecap:butt;stroke-linejoin:miter;stroke-miterlimit:4;stroke-dasharray:none;stroke-dashoffset:0"
   paint-order="stroke"
   x="-640"
   y="-512"
   rx="0"
   ry="0"
   width="1280"
   height="1024"
   id="rect1" />
</g>
<g
   transform="matrix(1.7105484,0,0,1.7105484,201.17605,193.20929)"
   id="logo-logo">
<g
   paint-order="stroke"
   id="g67">
		<g
   transform="scale(0.84761961)"
   id="g66">
<g
   paint-order="stroke"
   id="g65">
		<g
   transform="translate(0.39079421,104.43986)"
   id="g1">
<path
   style="opacity:1;fill:#ffedcc;fill-rule:nonzero;stroke:none;stroke-width:1;stroke-linecap:butt;stroke-linejoin:miter;stroke-miterlimit:4;stroke-dasharray:none;stroke-dashoffset:0"
   paint-order="stroke"
   transform="translate(-125.39079,-227.43437)"
   d="m 110.89776,229.58768 c 1.30452,4.23265 3.66221,8.28069 7.29847,10.80945 3.63626,2.52876 8.67603,3.278 12.56441,1.15726 2.60657,-1.42165 4.44667,-3.92274 5.9147,-6.50346 2.6709,-4.69525 4.39708,-9.92535 5.04578,-15.28802 -5.6947,-0.97833 -10.69679,-4.27119 -15.35831,-7.68546 -0.0368,-0.0269 -6.36683,3.01469 -7.12717,3.21925 -2.69972,0.7263 -5.23257,0.52655 -7.94923,0.79243 -2.78611,0.27269 -2.26493,2.28816 -2.02322,4.64949 0.30576,2.98713 0.74812,5.9729 1.63457,8.84906 z"
   stroke-linecap="round"
   id="path1" />
</g>
		<g
   transform="translate(-8.5647412,97.327029)"
   id="g2">
<path
   style="opacity:1;fill:#ccba9b;fill-rule:nonzero;stroke:none;stroke-width:1;stroke-linecap:butt;stroke-linejoin:miter;stroke-miterlimit:4;stroke-dasharray:none;stroke-dashoffset:0"
   paint-order="stroke"
   transform="translate(-116.43526,-220.32154)"
   d="m 121.14694,224.87041 c 1.11903,-0.46609 2.2154,-1.10217 2.9155,-2.09178 0.82461,-1.16557 0.99635,-2.69424 0.77419,-4.10463 -0.22215,-1.41039 -0.80133,-2.73589 -1.3751,-4.0433 -4.54888,2.96684 -9.94829,4.6131 -15.37864,4.68887 -0.53405,0.007 0.64168,3.8167 0.84571,4.22537 0.49162,0.98471 1.02967,1.38214 2.07596,1.75177 3.20663,1.13284 7.03243,0.86902 10.14238,-0.4263 z"
   stroke-linecap="round"
   id="path2" />
</g>
		<g
   transform="translate(8.5647393,97.327029)"
   id="g3">
<path
   style="opacity:1;fill:#ccba9b;fill-rule:nonzero;stroke:none;stroke-width:1;stroke-linecap:butt;stroke-linejoin:miter;stroke-miterlimit:4;stroke-dasharray:none;stroke-dashoffset:0"
   paint-order="stroke"
   transform="translate(-133.56474,-220.32154)"
   d="m 128.85306,224.87041 c -1.11903,-0.46609 -2.2154,-1.10217 -2.9155,-2.09178 -0.82461,-1.16557 -0.99635,-2.69424 -0.77419,-4.10463 0.22215,-1.41039 0.80133,-2.73589 1.3751,-4.0433 4.54888,2.96684 9.9483,4.6131 15.37864,4.68887 0.53404,0.007 -0.64168,3.8167 -0.84572,4.22537 -0.49162,0.98471 -1.02966,1.38214 -2.07594,1.75177 -3.20665,1.13284 -7.03245,0.86902 -10.14239,-0.4263 z"
   stroke-linecap="round"
   id="path3" />
</g>
		<g
   transform="translate(0,-23.828386)"
   id="g4">
<path
   style="opacity:1;fill:#27aae1;fill-rule:nonzero;stroke:none;stroke-width:1;stroke-linecap:butt;stroke-linejoin:miter;stroke-miterlimit:4;stroke-dasharray:none;stroke-dashoffset:0"
   paint-order="stroke"
   transform="translate(-125,-99.166125)"
   d="m 188.84442,88.61726 c 0,0 18.53197,32.73358 61.15558,16.02779 0,0 -18.1711,-18.94909 -14.13307,-55.96434 0,0 1.77574,-11.46376 -4.03802,-22.65785 -5.81381,-11.19408 -11.44112,-15.47908 -11.44112,-15.47908 0,0 -10.31938,-2.01901 -15.25475,0 0,0 -5.38403,-8.52477 -18.61983,-10.54378 0,0 -14.80608,5.38409 -22.65779,17.49815 0,0 0.673,41.95061 -9.87077,61.46777 0,0 -7.49573,-5.37807 -28.96863,-5.38359 v -2.4e-4 c -0.005,0 -0.0105,1.2e-4 -0.016,1.2e-4 -0.005,0 -0.0106,-1.2e-4 -0.016,-1.2e-4 v 2.4e-4 C 103.51109,73.58785 96.01535,78.96592 96.01535,78.96592 85.47156,59.44876 86.14457,17.49815 86.14457,17.49815 78.29286,5.38409 63.48679,0 63.48679,0 50.25099,2.01901 44.86697,10.54378 44.86697,10.54378 c -4.93536,-2.01901 -15.25475,0 -15.25475,0 0,0 -5.6273,4.285 -11.44112,15.47908 C 12.35734,37.21695 14.13308,48.68071 14.13308,48.68071 18.17109,85.69596 0,104.64505 0,104.64505 c 42.62362,16.7058 61.15557,-16.02779 61.15557,-16.02779 4.39889,7.85673 10.03842,13.15019 10.03842,13.15019 0,0 -0.75635,8.90991 -9.32935,11.33137 -8.57307,2.42146 -9.37031,9.83673 -9.37031,9.83673 -5.8327,21.31184 8.74911,41.05328 8.74911,41.05328 0,0 -6.50576,1.34601 1.29659,14.13313 7.7037,12.6255 61.096,20.02109 62.44395,20.2059 v 0.004 c 0,0 0.0117,-0.002 0.016,-0.002 0.004,5.6e-4 0.016,0.002 0.016,0.002 v -0.004 c 1.34795,-0.18481 54.74025,-7.5804 62.44395,-20.2059 7.80234,-12.78712 1.29659,-14.13313 1.29659,-14.13313 0,0 14.5818,-19.74144 8.7491,-41.05328 0,0 -0.79724,-7.41527 -9.37024,-9.83673 -8.57306,-2.42146 -9.32942,-11.33137 -9.32942,-11.33137 0,0 5.63954,-5.29346 10.03842,-13.15019 z"
   stroke-linecap="round"
   id="path4" />
</g>
		<g
   transform="translate(-1.7149056e-6,-24.543066)"
   id="g5">
<path
   style="opacity:1;fill:#0a7ba3;fill-rule:nonzero;stroke:none;stroke-width:1;stroke-linecap:butt;stroke-linejoin:miter;stroke-miterlimit:4;stroke-dasharray:none;stroke-dashoffset:0"
   paint-order="stroke"
   transform="translate(-125,-98.451445)"
   d="m 147.30321,84.36369 c -2.04559,-2.77467 -5.5087,-4.44311 -8.95349,-4.3136 -3.56572,0.13403 -7.49084,3.36565 -9.35808,6.40636 -1.86718,3.04071 -2.71334,6.59293 -3.28606,10.11493 -0.28981,1.78232 -0.52424,3.57674 -0.70555,5.37719 -0.18131,-1.80045 -0.41581,-3.59487 -0.70562,-5.37719 -0.57265,-3.522 -1.41882,-7.07422 -3.28606,-10.11493 -1.86723,-3.04072 -5.79237,-6.27234 -9.35808,-6.40636 -3.44479,-0.12951 -6.9079,1.53893 -8.9535,4.3136 -2.0456,2.77467 -2.61525,6.57632 -1.47276,9.8287 0.70329,-1.18395 1.40659,-2.3679 2.10989,-3.55185 1.05914,11.98286 10.04865,22.86305 21.60855,26.1826 0.001,0.0122 0.002,0.0245 0.003,0.0367 0.0184,-0.005 0.0361,-0.0126 0.0545,-0.0179 0.0184,0.005 0.0361,0.0127 0.0545,0.0179 10e-4,-0.0122 0.002,-0.0245 0.003,-0.0367 11.55984,-3.31955 20.5494,-14.19974 21.60854,-26.1826 0.70331,1.18395 1.4066,2.3679 2.10989,3.55185 1.14244,-3.25238 0.5728,-7.05402 -1.47281,-9.8287 z"
   stroke-linecap="round"
   id="path5" />
</g>
		<g
   transform="translate(-71.24436,-57.567283)"
   id="g6">
<path
   style="opacity:1;fill:#0a7ba3;fill-rule:nonzero;stroke:none;stroke-width:1;stroke-linecap:butt;stroke-linejoin:miter;stroke-miterlimit:4;stroke-dasharray:none;stroke-dashoffset:0"
   paint-order="stroke"
   transform="translate(-53.75564,-65.427228)"
   d="m 79.88306,110.05654 c 1.04422,-2.10129 2.23513,-4.12814 3.54526,-6.07478 3.22523,-3.46912 7.38969,-5.84794 12.42037,-6.1819 C 84.56461,78.06345 78.1812,55.54922 77.42723,32.82728 77.32331,29.69494 77.30982,26.48063 76.18251,23.55638 75.01286,20.52206 72.73427,18.05112 70.31538,15.87752 68.08495,13.87331 65.63691,12.02257 62.80534,11.03561 59.97385,10.04865 56.69243,10.02024 54.10133,11.5295 54.93213,26.89601 50.74296,42.49355 42.32505,55.37608 45.22284,42.78268 45.01437,28.545 43.34957,15.73021 44.78777,26.80062 41.59321,38.43804 39.1468,49.07665 36.6753,59.82439 32.87716,70.265 27.88216,80.09671 c -2.20001,4.33022 -4.63232,8.54259 -7.2857,12.6109 -2.24987,3.44955 -4.93599,7.47873 -8.93387,9.05986 8.63791,0.75121 20.97499,-1.79756 28.68182,-5.77029 6.01012,-3.09816 10.36216,-8.66281 13.87099,-14.44283 8.57338,-14.12279 14.4193,-32.92719 16.37648,-52.87521 1.92676,12.64527 -2.27891,32.53716 0.99248,44.90296 1.20596,4.55849 2.28003,8.41351 3.86323,12.24143 -3.27979,-2.81149 -6.49604,-5.69735 -9.60687,-8.69479 0.21518,1.96677 -2.1731,3.52319 -1.92518,5.48613 0.09394,0.74387 -1.86435,2.81688 -1.46203,3.44956 4.09741,6.44361 7.16779,10.28251 12.91689,15.0649 -1.38019,2.47464 -1.76438,4.70488 -3.44981,6.98253 -1.42597,1.927 -3.15806,3.9213 -4.36891,5.95154 -0.83218,1.3953 3.95505,0.71458 5.2364,0.8727 1.32117,0.16306 2.63344,0.3978 3.93347,0.68329 2.56841,0.56394 5.08657,1.33616 7.56848,2.20051 1.22491,0.42666 2.44109,0.8779 3.6532,1.33961 0.73108,0.27846 3.05827,0.74068 3.49126,1.35667 -3.04748,-4.33531 -6.47164,-8.95063 -11.55143,-10.45964 z"
   stroke-linecap="round"
   id="path6" />
</g>
		<g
   transform="translate(-33.631688,24.101052)"
   id="g7">
<path
   style="opacity:1;fill:#0a7ba3;fill-rule:nonzero;stroke:none;stroke-width:1;stroke-linecap:butt;stroke-linejoin:miter;stroke-miterlimit:4;stroke-dasharray:none;stroke-dashoffset:0"
   paint-order="stroke"
   transform="translate(-91.368312,-147.09556)"
   d="m 106.59209,168.77113 c -2.65284,1.22188 -5.59677,1.69124 -8.51477,1.81693 -11.59,0.49924 -23.2969,-4.54004 -30.90068,-13.3013 3.24449,1.0836 6.64443,1.70058 10.06278,1.82607 -3.93307,-0.78003 -6.9449,-4.06677 -8.71745,-7.66338 -1.77255,-3.59661 -2.57442,-7.58089 -3.87767,-11.37285 -1.30325,-3.79198 -3.26824,-7.58156 -6.63012,-9.76678 3.17958,-4.4203 8.76935,-6.73277 14.21442,-6.74065 5.44508,-0.008 10.73232,2.06597 15.31167,5.01189 4.57935,2.94591 8.53963,6.74284 12.44086,10.54143 -1.78364,-4.16916 -4.49835,-7.9369 -7.88853,-10.94853 6.87424,2.81978 11.55949,9.1297 16.1481,14.97357 0.98069,1.24898 1.9902,2.50604 3.28194,3.42964 1.29175,0.92361 2.92203,1.48737 4.47943,1.17728 2.7813,-0.55376 4.36237,-3.65419 4.48051,-6.48763 0.11814,-2.83344 -0.79484,-5.60429 -1.03707,-8.42981 2.3439,2.91629 4.21211,6.28641 4.94881,9.95464 0.73669,3.66824 0.26443,7.65416 -1.73742,10.81505 -2.00185,3.1609 -5.63172,5.35571 -9.37014,5.20441 -0.20649,2.336 -0.22173,4.10812 -1.67063,6.0267 -1.29496,1.7147 -3.08081,3.03829 -5.02404,3.93332 z"
   stroke-linecap="round"
   id="path7" />
</g>
		<g
   transform="translate(71.244365,-57.567293)"
   id="g8">
<path
   style="opacity:1;fill:#0a7ba3;fill-rule:nonzero;stroke:none;stroke-width:1;stroke-linecap:butt;stroke-linejoin:miter;stroke-miterlimit:4;stroke-dasharray:none;stroke-dashoffset:0"
   paint-order="stroke"
   transform="translate(-196.24437,-65.427218)"
   d="m 170.11694,110.05654 c -1.04422,-2.10129 -2.23512,-4.12814 -3.54526,-6.07478 -3.22523,-3.46912 -7.38968,-5.84794 -12.42036,-6.1819 11.28407,-19.73642 17.66748,-42.25064 18.42145,-64.97259 0.10393,-3.13234 0.1174,-6.34665 1.24472,-9.2709 1.16965,-3.03432 3.44824,-5.50526 5.86713,-7.67886 2.23042,-2.00421 4.67848,-3.85495 7.51004,-4.84191 2.83148,-0.98696 6.1129,-1.01537 8.70401,0.49389 -0.8308,15.36651 3.35837,30.96405 11.77628,43.84658 -2.89778,-12.5934 -2.68932,-26.83108 -1.02452,-39.64587 -1.4382,11.07041 1.75635,22.70783 4.20277,33.34644 2.4715,10.74774 6.26964,21.18835 11.26463,31.02006 2.20001,4.33022 4.63232,8.54259 7.28571,12.6109 2.24986,3.44955 4.93597,7.47873 8.93387,9.05986 -8.63792,0.75121 -20.97501,-1.79756 -28.68184,-5.77029 -6.01012,-3.09816 -10.36215,-8.66281 -13.87097,-14.44283 -8.57338,-14.12279 -14.41931,-32.92719 -16.37648,-52.87521 -1.92676,12.64527 2.2789,32.53716 -0.99248,44.90296 -1.20596,4.55849 -2.28004,8.41351 -3.86324,12.24143 3.27979,-2.81149 6.49603,-5.69735 9.60687,-8.69479 -0.21518,1.96677 2.1731,3.52319 1.92519,5.48613 -0.094,0.74387 1.86435,2.81688 1.46204,3.44956 -4.09741,6.44361 -7.1678,10.28251 -12.9169,15.0649 1.38019,2.47464 1.76439,4.70488 3.44981,6.98253 1.42596,1.927 3.15805,3.9213 4.36891,5.95154 0.83217,1.3953 -3.95505,0.71458 -5.23639,0.8727 -1.32118,0.16306 -2.63344,0.3978 -3.93349,0.68329 -2.56839,0.56394 -5.08656,1.33616 -7.56848,2.20051 -1.2249,0.42666 -2.44109,0.8779 -3.6532,1.33961 -0.73106,0.27846 -3.05827,0.74068 -3.49126,1.35667 3.04749,-4.3353 6.47166,-8.95062 11.55144,-10.45963 z"
   stroke-linecap="round"
   id="path8" />
</g>
		<g
   transform="translate(33.631683,24.101052)"
   id="g9">
<path
   style="opacity:1;fill:#0a7ba3;fill-rule:nonzero;stroke:none;stroke-width:1;stroke-linecap:butt;stroke-linejoin:miter;stroke-miterlimit:4;stroke-dasharray:none;stroke-dashoffset:0"
   paint-order="stroke"
   transform="translate(-158.63168,-147.09556)"
   d="m 143.40791,168.77113 c 2.65283,1.22188 5.59677,1.69124 8.51477,1.81693 11.59,0.49924 23.29691,-4.54004 30.90068,-13.3013 -3.24449,1.0836 -6.64442,1.70058 -10.06279,1.82607 3.93307,-0.78003 6.9449,-4.06677 8.71745,-7.66338 1.77255,-3.59661 2.57442,-7.58089 3.87767,-11.37285 1.30325,-3.79198 3.26823,-7.58156 6.63013,-9.76678 -3.17958,-4.4203 -8.76935,-6.73277 -14.21443,-6.74065 -5.44507,-0.008 -10.73232,2.06597 -15.31166,5.01189 -4.57936,2.94591 -8.53963,6.74284 -12.44086,10.54143 1.78365,-4.16916 4.49835,-7.9369 7.88853,-10.94853 -6.87424,2.81978 -11.55949,9.1297 -16.1481,14.97357 -0.98068,1.24898 -1.99019,2.50604 -3.28194,3.42964 -1.29175,0.92361 -2.92203,1.48737 -4.47945,1.17728 -2.7813,-0.55376 -4.36235,-3.65419 -4.48051,-6.48763 -0.11815,-2.83344 0.79485,-5.60429 1.03708,-8.42981 -2.3439,2.91629 -4.21211,6.28641 -4.94881,9.95464 -0.73669,3.66824 -0.26443,7.65416 1.73742,10.81505 2.00185,3.1609 5.63172,5.35571 9.37014,5.20441 0.20648,2.336 0.22173,4.10812 1.67062,6.0267 1.29498,1.7147 3.08083,3.03829 5.02406,3.93332 z"
   stroke-linecap="round"
   id="path9" />
</g>
		<g
   transform="translate(-31.69578,24.386498)"
   id="g10">
<path
   style="opacity:1;fill:#ed1c24;fill-rule:nonzero;stroke:none;stroke-width:1;stroke-linecap:butt;stroke-linejoin:miter;stroke-miterlimit:4;stroke-dasharray:none;stroke-dashoffset:0"
   paint-order="stroke"
   transform="translate(-93.30422,-147.38101)"
   d="m 93.83798,146.22635 c 4.65572,4.94234 9.87595,9.73254 16.36461,11.73247 -1.89445,1.60793 -3.8056,3.22746 -5.98461,4.42172 -2.17902,1.19427 -4.67262,1.94794 -7.14354,1.68536 -3.23047,-0.34329 -6.04806,-2.36365 -8.32788,-4.67799 -7.58408,-7.6956 -10.39012,-18.44508 -12.34071,-28.74399 6.90307,3.73061 12.12523,9.94881 17.43213,15.58243 z"
   stroke-linecap="round"
   id="path10" />
</g>
		<g
   transform="translate(31.695785,24.386498)"
   id="g11">
<path
   style="opacity:1;fill:#ed1c24;fill-rule:nonzero;stroke:none;stroke-width:1;stroke-linecap:butt;stroke-linejoin:miter;stroke-miterlimit:4;stroke-dasharray:none;stroke-dashoffset:0"
   paint-order="stroke"
   transform="translate(-156.69578,-147.38101)"
   d="m 156.16202,146.22635 c -4.65572,4.94234 -9.87595,9.73254 -16.36461,11.73247 1.89444,1.60793 3.80559,3.22746 5.9846,4.42172 2.17903,1.19427 4.67262,1.94794 7.14354,1.68536 3.23048,-0.34329 6.04807,-2.36365 8.32788,-4.67799 7.58409,-7.6956 10.39012,-18.44508 12.34073,-28.74399 -6.90309,3.73061 -12.12524,9.94881 -17.43214,15.58243 z"
   stroke-linecap="round"
   id="path11" />
</g>
		<g
   transform="translate(-31.047294,22.787704)"
   id="g12">
<path
   style="opacity:1;fill:#96141d;fill-rule:nonzero;stroke:none;stroke-width:1;stroke-linecap:butt;stroke-linejoin:miter;stroke-miterlimit:4;stroke-dasharray:none;stroke-dashoffset:0"
   paint-order="stroke"
   transform="translate(-93.952706,-145.78222)"
   d="m 88.86593,147.24759 c 2.48912,3.70598 4.84956,7.66992 8.49468,10.24734 3.64512,2.57742 9.05119,3.32933 12.40456,0.38229 -7.78497,-5.15572 -15.68977,-10.41748 -21.65363,-17.60216 -2.80779,-3.38255 -5.50916,-7.40529 -9.7693,-8.48996 -0.25893,1.58301 -0.40635,4.11046 0.44026,5.56281 0.67918,1.16512 1.99095,1.48279 3.09457,2.21703 2.90951,1.93567 5.0644,4.81737 6.98886,7.68265 z"
   stroke-linecap="round"
   id="path12" />
</g>
		<g
   transform="translate(31.047295,22.787704)"
   id="g13">
<path
   style="opacity:1;fill:#96141d;fill-rule:nonzero;stroke:none;stroke-width:1;stroke-linecap:butt;stroke-linejoin:miter;stroke-miterlimit:4;stroke-dasharray:none;stroke-dashoffset:0"
   paint-order="stroke"
   transform="translate(-156.04729,-145.78222)"
   d="m 161.13408,147.24759 c -2.48912,3.70598 -4.84956,7.66992 -8.49469,10.24734 -3.64513,2.57742 -9.05119,3.32933 -12.40456,0.38229 7.78497,-5.15572 15.68977,-10.41748 21.65363,-17.60216 2.80779,-3.38255 5.50916,-7.40529 9.7693,-8.48996 0.25894,1.58301 0.40634,4.11046 -0.44026,5.56281 -0.67917,1.16512 -1.99095,1.48279 -3.09457,2.21703 -2.90951,1.93567 -5.0644,4.81737 -6.98885,7.68265 z"
   stroke-linecap="round"
   id="path13" />
</g>
		<g
   transform="translate(-0.40837208,-52.377566)"
   id="g14">
<path
   style="opacity:1;fill:#27aae1;fill-rule:nonzero;stroke:none;stroke-width:1;stroke-linecap:butt;stroke-linejoin:miter;stroke-miterlimit:4;stroke-dasharray:none;stroke-dashoffset:0"
   paint-order="stroke"
   transform="translate(-124.59163,-70.616945)"
   d="m 118.15407,108.11186 c 0,0 -11.85163,-13.06039 -11.73215,-28.57 0.12844,-16.6733 13.7392,-23.4767 -2.40102,-46.41983 0,0 10.59116,2.1793 15.29985,7.42569 0,0 20.285,2.57858 24.96884,23.92104 4.68384,21.34245 -10.26827,42.06688 -26.13552,43.6431 z"
   stroke-linecap="round"
   id="path14" />
</g>
		<g
   transform="translate(-0.43454213,-43.054787)"
   id="g15">
<path
   style="opacity:1;fill:#0a7ba3;fill-rule:nonzero;stroke:none;stroke-width:1;stroke-linecap:butt;stroke-linejoin:miter;stroke-miterlimit:4;stroke-dasharray:none;stroke-dashoffset:0"
   paint-order="stroke"
   transform="translate(-124.56546,-79.939725)"
   d="m 117.52708,95.80097 c 4.15354,-7.62846 5.77048,-16.61078 4.53795,-25.20882 1.31702,5.23907 2.17104,10.59444 2.54884,15.9833 5.75064,-11.45731 5.63452,-25.67528 -0.3025,-37.03713 5.69109,5.28136 9.05598,12.83451 9.82354,20.56058 0.76756,7.72607 -0.95708,15.59185 -4.29517,22.60173 3.92903,-1.62244 7.09406,-4.78377 9.27255,-8.43396 2.17848,-3.65018 3.43781,-7.77911 4.30617,-11.94032 -0.38686,6.94514 -1.24547,13.95403 -3.78171,20.43108 -2.53624,6.47705 -6.90192,12.43322 -12.99383,15.79081 -2.10316,1.15917 -4.48502,2.00901 -6.87183,1.74429 -2.86269,-0.3175 -5.32851,-2.19105 -7.24286,-4.34304 -5.30449,-5.96297 -7.3461,-14.35528 -6.70039,-22.31001 0.64274,-7.91817 3.69991,-15.59089 7.679,-22.40435 -0.0702,2.60902 -1.71177,5.35909 -2.19484,7.97244 -0.56767,3.07101 -0.69878,6.22116 -0.4128,9.33032 0.57165,6.21491 2.82143,12.2989 6.62788,17.26308 z"
   stroke-linecap="round"
   id="path15" />
</g>
		<g
   transform="translate(0,60.032195)"
   id="g16">
<path
   style="opacity:1;fill:#e6e7e8;fill-rule:nonzero;stroke:none;stroke-width:1;stroke-linecap:butt;stroke-linejoin:miter;stroke-miterlimit:4;stroke-dasharray:none;stroke-dashoffset:0"
   paint-order="stroke"
   transform="translate(-125,-183.02671)"
   d="m 219.95514,158.36649 c 0,0 4.48669,-5.72345 6.28137,-9.58481 0,0 -14.81348,4.02774 -30.67162,-3.28487 0,0 -4.78127,14.74588 -13.97504,20.3205 -9.1937,5.57455 -14.80212,7.00812 -14.80212,7.00812 0,0 14.68065,2.10649 20.68826,0 0,0 -18.94664,10.40726 -42.81177,1.8e-4 0,0 -5.92087,-2.08574 -8.2751,-14.21034 0,0 -8.08563,2.10381 -11.38913,-9.83359 -3.30356,11.93739 -11.38913,9.83359 -11.38913,9.83359 -2.35423,12.1246 -8.2751,14.21034 -8.2751,14.21034 -23.86513,10.40707 -42.81176,-1.8e-4 -42.81176,-1.8e-4 6.00761,2.10649 20.68819,0 20.68819,0 0,0 -5.60836,-1.43356 -14.80212,-7.00812 -9.1937,-5.57462 -13.97497,-20.3205 -13.97497,-20.3205 -15.85813,7.31261 -30.67161,3.28487 -30.67161,3.28487 1.79468,3.86136 6.28137,9.58481 6.28137,9.58481 2.24334,16.58682 23.77946,33.21555 23.77946,33.21555 l -11.66539,2.35579 c 17.72249,12.89952 38.13693,11.48785 38.13693,11.48785 28.2662,28.87405 44.70414,7.54678 44.70414,7.54678 0,0 16.43794,21.32727 44.70415,-7.54678 0,0 20.41444,1.41167 38.13693,-11.48785 l -11.66547,-2.35579 c 0,-1e-5 21.53618,-16.62873 23.77953,-33.21555 z"
   stroke-linecap="round"
   id="path16" />
</g>
		<g
   transform="translate(-1.5e-5,55.900348)"
   id="g17">
<path
   style="opacity:1;fill:#aaaaaa;fill-rule:nonzero;stroke:none;stroke-width:1;stroke-linecap:butt;stroke-linejoin:miter;stroke-miterlimit:4;stroke-dasharray:none;stroke-dashoffset:0"
   paint-order="stroke"
   transform="translate(-124.99999,-178.89486)"
   d="m 139.92953,174.21126 c -3.50896,0.051 -7.01132,0.81116 -10.20895,2.2619 2.17448,-2.3815 5.38196,-3.7854 8.60681,-3.76715 -4.60579,-0.61549 -9.3782,0.51076 -13.32736,2.9472 -3.94915,-2.43645 -8.72163,-3.5627 -13.32742,-2.9472 3.22491,-0.0182 6.43232,1.38565 8.6068,3.76715 -3.19763,-1.45074 -6.7,-2.21092 -10.20895,-2.2619 -1.7726,-0.0258 -8.21941,-0.20703 -8.48325,2.22867 4.15385,0.71483 8.0835,1.02026 12.08371,2.58772 0.93954,0.36819 10.87812,5.80748 10.464,6.22165 0.28837,-0.22478 0.57674,-0.4496 0.8651,-0.67438 0.28837,0.22478 0.57668,0.4496 0.86504,0.67438 -0.41412,-0.41417 9.52447,-5.85345 10.46401,-6.22165 4.00026,-1.56746 7.9299,-1.87289 12.08369,-2.58772 -0.26382,-2.4357 -6.71063,-2.25444 -8.48323,-2.22867 z"
   stroke-linecap="round"
   id="path17" />
</g>
		<g
   transform="translate(-2.2840244e-6,36.799047)"
   id="g18">
<path
   style="opacity:1;fill:#aaaaaa;fill-rule:nonzero;stroke:none;stroke-width:1;stroke-linecap:butt;stroke-linejoin:miter;stroke-miterlimit:4;stroke-dasharray:none;stroke-dashoffset:0"
   paint-order="stroke"
   transform="translate(-125,-159.79356)"
   d="m 139.21135,166.10855 c -0.82265,-1.7872 -1.64523,-3.57436 -2.46782,-5.36157 -0.30241,-0.65701 -0.61731,-1.33163 -1.14549,-1.82578 -0.8969,-0.83914 -2.20973,-0.995 -3.39224,-1.32695 -2.33195,-0.65482 -4.36101,-2.20897 -5.71912,-4.21024 -0.48787,-1.48648 -0.91245,-2.99367 -1.25996,-4.5191 -0.0468,0.41066 -0.1275,0.81523 -0.22672,1.21492 -0.0992,-0.39969 -0.17987,-0.80426 -0.22672,-1.21492 -0.34751,1.52544 -0.77209,3.03262 -1.25996,4.5191 -1.35811,2.00127 -3.38715,3.55542 -5.71912,4.21024 -1.18245,0.33195 -2.49534,0.48781 -3.39223,1.32695 -0.52813,0.49414 -0.84309,1.16876 -1.14545,1.82578 -0.82264,1.78722 -1.64523,3.57437 -2.46786,5.36157 -0.38871,0.84454 -2.58044,4.37149 -1.28568,4.60486 0.99555,0.17943 4.19525,-2.43965 5.11805,-2.98302 1.10625,-0.65143 3.77757,-2.95799 5.0236,-2.95799 1.85758,-1.09377 3.77023,-2.27307 5.35537,-3.71974 1.58514,1.44667 3.49779,2.62598 5.35536,3.71974 1.24605,0 3.91736,2.30656 5.02361,2.95799 0.92281,0.54337 4.1225,3.16245 5.11804,2.98302 1.29477,-0.23337 -0.89696,-3.76032 -1.28566,-4.60486 z"
   stroke-linecap="round"
   id="path18" />
</g>
		<g
   transform="translate(-62.350239,53.431437)"
   id="g19">
<path
   style="opacity:1;fill:#aaaaaa;fill-rule:nonzero;stroke:none;stroke-width:1;stroke-linecap:butt;stroke-linejoin:miter;stroke-miterlimit:4;stroke-dasharray:none;stroke-dashoffset:0"
   paint-order="stroke"
   transform="translate(-62.649761,-176.42595)"
   d="m 53.10053,167.55627 c 5.11085,2.2693 10.73736,3.36792 16.32647,3.18787 -8.15037,-2.1183 -15.25011,-7.97046 -18.88517,-15.56665 -4.56283,0.45239 -9.12567,0.90477 -13.6885,1.35715 7.59375,10.93839 16.32712,21.59235 28.04521,27.91687 -7.31387,-2.09885 -14.39357,-5.01254 -21.06604,-8.66988 6.75139,6.59912 13.98483,13.24931 23.0036,16.04063 -2.36275,1.42349 -5.01724,2.36034 -7.75008,2.7352 5.97657,2.54057 12.59216,3.56113 19.05651,2.93974 0.38629,-0.0371 2.44029,-4.46904 2.7768,-4.99852 1.04576,-1.64542 2.19042,-3.22768 3.42592,-4.73584 0.80638,-0.98434 5.09044,-3.88069 3.89029,-5.13533 -2.91784,0.39919 -5.45446,0.45145 -6.75495,0.3026 -7.0004,-0.80125 -13.78704,-3.36435 -19.60027,-7.3405 -3.28508,-2.24694 -6.2618,-4.94921 -8.77979,-8.03334 z"
   stroke-linecap="round"
   id="path19" />
</g>
		<g
   transform="translate(62.350239,53.431437)"
   id="g20">
<path
   style="opacity:1;fill:#aaaaaa;fill-rule:nonzero;stroke:none;stroke-width:1;stroke-linecap:butt;stroke-linejoin:miter;stroke-miterlimit:4;stroke-dasharray:none;stroke-dashoffset:0"
   paint-order="stroke"
   transform="translate(-187.35024,-176.42595)"
   d="m 196.89948,167.55627 c -5.11086,2.2693 -10.73737,3.36792 -16.32648,3.18787 8.15038,-2.1183 15.25011,-7.97046 18.88516,-15.56665 4.56284,0.45239 9.12567,0.90477 13.68851,1.35715 -7.59375,10.93839 -16.32712,21.59235 -28.04521,27.91687 7.31386,-2.09885 14.39357,-5.01254 21.06604,-8.66988 -6.75139,6.59912 -13.98483,13.24931 -23.0036,16.04063 2.36275,1.42349 5.01724,2.36034 7.75008,2.7352 -5.97658,2.54057 -12.59216,3.56113 -19.0565,2.93974 -0.38629,-0.0371 -2.44029,-4.46904 -2.77681,-4.99852 -1.04576,-1.64542 -2.19043,-3.22768 -3.42592,-4.73584 -0.80638,-0.98434 -5.09044,-3.88069 -3.89029,-5.13533 2.91785,0.39919 5.45445,0.45145 6.75494,0.3026 7.0004,-0.80125 13.78705,-3.36435 19.60028,-7.3405 3.28509,-2.24694 6.2618,-4.94921 8.7798,-8.03334 z"
   stroke-linecap="round"
   id="path20" />
</g>
		<g
   transform="translate(-22.134313,73.256572)"
   id="g21">
<path
   style="opacity:1;fill:#aaaaaa;fill-rule:nonzero;stroke:none;stroke-width:1;stroke-linecap:butt;stroke-linejoin:miter;stroke-miterlimit:4;stroke-dasharray:none;stroke-dashoffset:0"
   paint-order="stroke"
   transform="translate(-102.86569,-196.25108)"
   d="m 99.52733,178.05704 c -1.93189,2.05156 -2.73289,5.10703 -2.05594,7.8425 0.52447,2.11931 1.86099,3.97301 3.49267,5.42357 1.63167,1.45058 3.55408,2.53284 5.50198,3.51881 -0.41584,-0.89693 -0.83871,-1.82082 -0.8961,-2.80777 -0.0574,-0.98697 0.33462,-2.06544 1.2019,-2.54002 1.09078,-0.59689 2.4399,-0.0591 3.51917,0.55836 3.52332,2.0157 6.54439,4.90184 8.71888,8.32945 0.59804,0.94267 1.14861,1.98407 1.13193,3.10031 -0.026,1.73917 -1.4127,3.1595 -2.88778,4.08119 -2.50652,1.56616 -5.50075,2.25368 -8.45633,2.25516 -6.17245,0.003 -12.27255,-3.05368 -15.9649,-7.99995 -3.69235,-4.94627 -4.88859,-11.66371 -3.13072,-17.58055 -4.90799,2.78604 -7.80753,8.53528 -7.67861,14.17743 0.12891,5.64215 3.06823,11.03908 7.38667,14.67247 4.31844,3.63339 9.90489,5.58168 15.53055,6.03166 3.48954,0.27913 7.11795,-0.0187 10.25175,-1.57883 4.21704,-2.09943 7.13505,-6.38187 8.11028,-10.99055 0.97523,-4.60868 0.13921,-9.48401 -1.7813,-13.78548 -1.92051,-4.30148 -4.87667,-8.07253 -8.17783,-11.43311 -1.75381,-1.78537 -3.90827,-4.15433 -6.57967,-4.0383 -2.70604,0.11754 -5.31138,0.71917 -7.2366,2.76365 z"
   stroke-linecap="round"
   id="path21" />
</g>
		<g
   transform="translate(22.134332,73.256572)"
   id="g22">
<path
   style="opacity:1;fill:#aaaaaa;fill-rule:nonzero;stroke:none;stroke-width:1;stroke-linecap:butt;stroke-linejoin:miter;stroke-miterlimit:4;stroke-dasharray:none;stroke-dashoffset:0"
   paint-order="stroke"
   transform="translate(-147.13433,-196.25108)"
   d="m 150.47267,178.05704 c 1.9319,2.05156 2.73289,5.10703 2.05594,7.8425 -0.52446,2.11931 -1.86099,3.97301 -3.49266,5.42357 -1.63168,1.45058 -3.55408,2.53284 -5.50198,3.51881 0.41583,-0.89693 0.83871,-1.82082 0.89609,-2.80777 0.0574,-0.98697 -0.33461,-2.06544 -1.20189,-2.54002 -1.09079,-0.59689 -2.4399,-0.0591 -3.51918,0.55836 -3.52332,2.0157 -6.54439,4.90184 -8.71887,8.32945 -0.59804,0.94267 -1.14862,1.98407 -1.13193,3.10031 0.026,1.73917 1.4127,3.1595 2.88779,4.08119 2.5065,1.56616 5.50073,2.25368 8.45631,2.25516 6.17245,0.003 12.27257,-3.05368 15.96492,-7.99995 3.69235,-4.94627 4.88858,-11.66371 3.13071,-17.58055 4.908,2.78604 7.80753,8.53528 7.67862,14.17743 -0.12891,5.64215 -3.06824,11.03908 -7.38667,14.67247 -4.31845,3.63339 -9.90489,5.58168 -15.53055,6.03166 -3.48955,0.27913 -7.11795,-0.0187 -10.25175,-1.57883 -4.21704,-2.09943 -7.13505,-6.38187 -8.11028,-10.99055 -0.97523,-4.60868 -0.13921,-9.48401 1.7813,-13.78548 1.92052,-4.30148 4.87668,-8.07253 8.17783,-11.43311 1.7538,-1.78537 3.90826,-4.15433 6.57967,-4.0383 2.70602,0.11754 5.31136,0.71917 7.23658,2.76365 z"
   stroke-linecap="round"
   id="path22" />
</g>
		<g
   transform="translate(14.19079,42.601449)"
   id="g23">
<path
   style="opacity:1;fill:#001718;fill-rule:nonzero;stroke:none;stroke-width:1;stroke-linecap:butt;stroke-linejoin:miter;stroke-miterlimit:4;stroke-dasharray:none;stroke-dashoffset:0"
   paint-order="stroke"
   transform="translate(-139.19079,-165.59596)"
   d="m 139.98427,158.95009 c -1.14812,3.04445 0.0263,7.75671 1.90727,10.77463 0.72021,1.16238 1.59134,2.26729 2.77289,3.10069 -2.89502,-0.78606 -5.30023,-2.94463 -7.19003,-5.26659 -2.05811,-2.63596 -3.55774,-5.64403 -3.75725,-9.19231 3e-5,1e-5 6.26712,0.58358 6.26712,0.58358 z"
   stroke-linecap="round"
   id="path23" />
</g>
		<g
   transform="translate(35.757415,25.787212)"
   id="g24">
<path
   style="opacity:1;fill:#001718;fill-rule:nonzero;stroke:none;stroke-width:1;stroke-linecap:butt;stroke-linejoin:miter;stroke-miterlimit:4;stroke-dasharray:none;stroke-dashoffset:0"
   paint-order="stroke"
   transform="translate(-160.75741,-148.78172)"
   d="m 171.72482,131.73721 c -0.45442,0.14211 -0.89026,0.31628 -1.31575,0.50838 -1.84456,8.1804 -5.62579,15.80296 -9.37523,23.31873 -0.90186,1.80772 -1.87048,3.69405 -3.53644,4.83676 -2.41977,1.65979 -5.70399,1.32341 -8.46538,0.33092 -2.52449,-0.90736 -5.62817,-1.99026 -7.89137,-3.33813 0.5415,-0.66849 1.12431,-1.32033 1.73413,-1.96042 -3.43117,1.76634 -8.37265,4.13824 -8.83592,3.4872 5.13416,7.21487 15.43759,9.65985 23.83401,6.84657 8.39636,-2.81329 14.80157,-10.09271 18.06795,-18.32344 1.23083,-3.10135 2.08215,-6.37881 3.76591,-9.25949 1.68381,-2.88066 4.44489,-5.40202 7.76924,-5.68823 -4.92824,-2.23253 -10.61589,-2.36459 -15.75115,-0.75885 z"
   stroke-linecap="round"
   id="path24" />
</g>
		<g
   transform="translate(34.85406,19.964545)"
   id="g25">
<path
   style="opacity:1;fill:#001718;fill-rule:nonzero;stroke:none;stroke-width:1;stroke-linecap:butt;stroke-linejoin:miter;stroke-miterlimit:4;stroke-dasharray:none;stroke-dashoffset:0"
   paint-order="stroke"
   transform="translate(-159.85406,-142.95906)"
   d="m 129.394,158.10284 c 17.87202,0.0989 24.37738,-19.93723 38.04355,-28.23476 6.7236,-4.11668 16.81375,-5.80867 22.87657,0.25543 -5.47598,-1.95819 -11.35722,-0.4751 -16.1805,2.3461 -7.22427,4.15663 -12.34465,12.08092 -18.58684,18.02663 -6.4999,6.45606 -17.11357,12.19713 -26.15278,7.6066 z"
   stroke-linecap="round"
   id="path25" />
</g>
		<g
   transform="translate(-14.19073,42.601564)"
   id="g26">
<path
   style="opacity:1;fill:#001718;fill-rule:nonzero;stroke:none;stroke-width:1;stroke-linecap:butt;stroke-linejoin:miter;stroke-miterlimit:4;stroke-dasharray:none;stroke-dashoffset:0"
   paint-order="stroke"
   transform="translate(-110.80927,-165.59608)"
   d="m 116.28279,158.36652 c -0.47501,6.27179 -5.03079,12.51611 -10.94704,14.45911 2.26772,-1.65561 3.59023,-4.21718 4.43182,-6.78259 0.79163,-2.50195 0.96355,-5.20169 0.24812,-7.09294 z"
   stroke-linecap="round"
   id="path26" />
</g>
		<g
   transform="translate(-35.75743,25.787212)"
   id="g27">
<path
   style="opacity:1;fill:#001718;fill-rule:nonzero;stroke:none;stroke-width:1;stroke-linecap:butt;stroke-linejoin:miter;stroke-miterlimit:4;stroke-dasharray:none;stroke-dashoffset:0"
   paint-order="stroke"
   transform="translate(-89.24257,-148.78172)"
   d="m 78.27515,131.73721 c 0.45443,0.14211 0.89026,0.31628 1.31575,0.50838 1.84457,8.1804 5.62579,15.80296 9.37524,23.31873 0.90185,1.80772 1.87048,3.69405 3.53643,4.83676 2.41978,1.65979 5.704,1.32341 8.46539,0.33092 2.52449,-0.90736 5.62817,-1.99026 7.89137,-3.33813 -0.5415,-0.66849 -1.12431,-1.32033 -1.73413,-1.96042 3.43117,1.76634 8.37265,4.13824 8.83593,3.4872 -5.13416,7.21487 -15.4376,9.65985 -23.83401,6.84657 -8.39637,-2.81329 -14.80158,-10.09271 -18.06796,-18.32344 -1.23082,-3.10135 -2.08215,-6.37881 -3.76591,-9.25949 -1.68381,-2.88066 -4.44489,-5.40202 -7.76924,-5.68823 4.92823,-2.23253 10.61587,-2.36459 15.75114,-0.75885 z"
   stroke-linecap="round"
   id="path27" />
</g>
		<g
   transform="translate(-34.854055,19.9645)"
   id="g28">
<path
   style="opacity:1;fill:#001718;fill-rule:nonzero;stroke:none;stroke-width:1;stroke-linecap:butt;stroke-linejoin:miter;stroke-miterlimit:4;stroke-dasharray:none;stroke-dashoffset:0"
   paint-order="stroke"
   transform="translate(-90.145945,-142.95901)"
   d="m 120.60598,158.10284 c -9.04258,4.58937 -19.65079,-1.15031 -26.15279,-7.60649 -6.24133,-5.94479 -11.36353,-13.87106 -18.58679,-18.02686 -4.82309,-2.82088 -10.70458,-4.30426 -16.18049,-2.34589 6.06614,-6.0639 16.15103,-4.37151 22.87642,-0.25554 13.66183,8.29391 20.17703,28.33749 38.04365,28.23478 z"
   stroke-linecap="round"
   id="path28" />
</g>
		<g
   transform="translate(-31.34822,81.664299)"
   id="g29">
<path
   style="opacity:1;fill:#001718;fill-rule:nonzero;stroke:none;stroke-width:1;stroke-linecap:butt;stroke-linejoin:miter;stroke-miterlimit:4;stroke-dasharray:none;stroke-dashoffset:0"
   paint-order="stroke"
   transform="translate(-93.65178,-204.65881)"
   d="m 111.04159,217.51678 c -2.21161,-0.70757 -4.29585,-1.91032 -6.27064,-3.13837 -4.07941,-2.53673 -8.04971,-5.2354 -11.89751,-8.0869 -2.83538,-2.1011 -5.71504,-4.42584 -7.049,-7.61946 -1.37988,-3.30362 -0.87689,-7.11324 0.55453,-10.39659 1.43143,-3.28329 3.7168,-6.14478 5.97688,-8.96498 -3.9055,3.88475 -9.11355,6.33969 -13.20438,10.04395 -4.09083,3.70424 -7.01677,9.61879 -4.55856,14.47694 1.07238,2.11948 3.00434,3.69916 4.88261,5.214 8.51223,6.86555 17.02452,9.88301 25.53682,16.74863 2.0182,1.62773 4.12663,3.30156 6.67484,3.94446 0.63525,0.16029 1.2789,0.24297 1.92368,0.26868 -1.1857,-4.44888 -2.06955,-9.38661 -2.56927,-12.49036 z"
   stroke-linecap="round"
   id="path29" />
</g>
		<g
   transform="translate(31.348227,81.664299)"
   id="g30">
<path
   style="opacity:1;fill:#001718;fill-rule:nonzero;stroke:none;stroke-width:1;stroke-linecap:butt;stroke-linejoin:miter;stroke-miterlimit:4;stroke-dasharray:none;stroke-dashoffset:0"
   paint-order="stroke"
   transform="translate(-156.34823,-204.65881)"
   d="m 170.84853,189.35443 c -4.0909,-3.70425 -9.29887,-6.15919 -13.20438,-10.04395 2.26003,2.82021 4.54539,5.68169 5.97688,8.96498 1.43143,3.28336 1.93434,7.09297 0.55447,10.39659 -1.33397,3.19362 -4.21364,5.51836 -7.04895,7.61946 -3.84781,2.8515 -7.81816,5.55017 -11.89751,8.0869 -1.97479,1.22804 -4.05904,2.43074 -6.27058,3.13831 -0.49971,3.10381 -1.3835,8.04153 -2.56927,12.49042 0.64479,-0.0257 1.28831,-0.10838 1.92355,-0.26868 2.54828,-0.6429 4.65672,-2.31673 6.67485,-3.94446 8.5123,-6.86562 17.02458,-9.88307 25.53688,-16.74863 1.8782,-1.51485 3.81017,-3.09453 4.88261,-5.214 2.45815,-4.85815 -0.46773,-10.7727 -4.55855,-14.47694 z"
   stroke-linecap="round"
   id="path30" />
</g>
		<g
   transform="translate(0,107.20658)"
   id="g31">
<path
   style="opacity:1;fill:#001718;fill-rule:nonzero;stroke:none;stroke-width:1;stroke-linecap:butt;stroke-linejoin:miter;stroke-miterlimit:4;stroke-dasharray:none;stroke-dashoffset:0"
   paint-order="stroke"
   transform="translate(-125,-230.20109)"
   d="m 139.42502,214.41316 2.4e-4,6e-5 c 0,0 -1.70505,12.75258 -4.4702,20.20824 -2.50826,6.76295 -8.50977,6.13605 -8.50977,6.13605 l -1.44523,-5.1236 -1.44522,5.1236 c 0,0 -6.00153,0.62691 -8.50979,-6.13605 -2.7652,-7.45566 -4.47025,-20.20824 -4.47025,-20.20824 l 2.5e-4,-6e-5 h -4.41018 c 0,0 2.34801,15.47174 6.08795,24.34641 2.81644,6.6835 8.98254,7.22568 10.86834,7.22945 0.35139,6.9e-4 0.68404,-0.15636 0.93879,-0.43895 0.52682,-0.58438 1.35328,-0.58438 1.8801,0 0.25475,0.28259 0.58739,0.43964 0.93879,0.43895 1.88581,-0.004 8.05184,-0.54594 10.86834,-7.22945 3.73993,-8.87466 6.08795,-24.34641 6.08795,-24.34641 z"
   stroke-linecap="round"
   id="path31" />
</g>
		<g
   transform="translate(0,75.337789)"
   id="g32">
<path
   style="opacity:1;fill:#001718;fill-rule:nonzero;stroke:none;stroke-width:1;stroke-linecap:butt;stroke-linejoin:miter;stroke-miterlimit:4;stroke-dasharray:none;stroke-dashoffset:0"
   paint-order="stroke"
   transform="translate(-125,-198.3323)"
   d="m 151.1627,206.90598 c -2.94337,3.23943 -6.57719,6.45412 -11.1017,6.78587 -5.03851,0.36945 -9.80537,-3.29617 -11.26747,-7.83295 -1.46204,-4.53683 -0.025,-9.59291 2.89844,-13.45901 2.92337,-3.8661 7.18034,-6.67883 11.64265,-8.90387 0.94145,-0.46947 2.00098,-0.92938 3.03635,-0.69032 1.29283,0.29845 2.06305,1.63347 2.07631,2.88199 0.0133,1.24852 -0.55273,2.43045 -1.10754,3.56549 1.72826,-2.04282 3.39343,-4.25084 3.94945,-6.8058 0.55595,-2.55502 -0.27122,-5.54245 -2.63156,-6.9209 -2.33052,-1.36104 -5.34627,-0.8255 -7.98676,-0.12029 -3.8172,1.01956 -11.96161,2.6609 -15.67085,5.86913 -3.70924,-3.20822 -11.85371,-4.84956 -15.67091,-5.86913 -2.64049,-0.70522 -5.65623,-1.24075 -7.98676,0.12029 -2.36034,1.37845 -3.18751,4.36588 -2.6315,6.9209 0.55595,2.55496 2.22119,4.76299 3.94939,6.8058 -0.55482,-1.13504 -1.12083,-2.31697 -1.10756,-3.56549 0.0133,-1.24852 0.78355,-2.58354 2.07639,-2.88199 1.03536,-0.23906 2.09483,0.22086 3.03633,0.69032 4.46232,2.22504 8.71923,5.03777 11.64267,8.90387 2.92337,3.8661 4.36041,8.92218 2.89837,13.45901 -1.46204,4.53677 -6.22897,8.20239 -11.26746,7.83295 -4.52444,-0.33176 -8.15834,-3.54645 -11.10171,-6.78587 -2.94343,-3.23936 -5.80955,-6.83745 -10.00272,-8.46539 6.26891,6.87791 12.53774,13.75583 18.80665,20.63376 0.85705,0.94035 1.75034,1.90729 2.94093,2.4397 1.73606,0.77634 3.81441,0.48933 5.60458,-0.17006 4.05462,-1.49348 6.95323,-4.6315 8.81332,-8.37152 1.86015,3.74002 4.75865,6.87804 8.81326,8.37152 1.79016,0.65939 3.86852,0.9464 5.60457,0.17006 1.19064,-0.53241 2.08389,-1.49934 2.94093,-2.4397 6.26891,-6.87793 12.53775,-13.75584 18.80666,-20.63376 -4.19319,1.62794 -7.05931,5.22602 -10.00275,8.46539 z"
   stroke-linecap="round"
   id="path32" />
</g>
		<g
   transform="translate(-52.198458,15.809112)"
   id="g33">
<path
   style="opacity:1;fill:#001718;fill-rule:nonzero;stroke:none;stroke-width:1;stroke-linecap:butt;stroke-linejoin:miter;stroke-miterlimit:4;stroke-dasharray:none;stroke-dashoffset:0"
   paint-order="stroke"
   transform="translate(-72.801542,-138.80362)"
   d="m 96.90623,123.96658 c -9.43375,-4.26431 -19.00762,-6.58269 -29.03339,-6.54813 -1.92249,0.0376 -3.95674,0.0972 -5.76062,0.31699 -3.79353,0.51152 -4.79155,1.53273 -5.88727,5.29107 -4.31297,15.19214 0.64854,31.63002 12.18514,42.79077 -15.66967,-7.67285 -23.17376,-27.83244 -18.18049,-44.50208 1.36987,-5.64784 5.418,-9.27367 11.31553,-9.45377 12.77421,-0.68753 26.01158,3.60358 35.3611,12.10515 z"
   stroke-linecap="round"
   id="path33" />
</g>
		<g
   transform="translate(52.198551,15.809106)"
   id="g34">
<path
   style="opacity:1;fill:#001718;fill-rule:nonzero;stroke:none;stroke-width:1;stroke-linecap:butt;stroke-linejoin:miter;stroke-miterlimit:4;stroke-dasharray:none;stroke-dashoffset:0"
   paint-order="stroke"
   transform="translate(-177.19855,-138.80362)"
   d="m 153.09375,123.96658 c 9.35086,-8.50205 22.58588,-12.79199 35.36125,-12.10536 5.89555,0.18242 9.94669,3.80343 11.31543,9.45425 4.99396,16.66604 -2.51172,36.83355 -18.18068,44.50185 11.53592,-11.1582 16.49913,-27.6006 12.18513,-42.79086 -1.0956,-3.75828 -2.09361,-4.77949 -5.88715,-5.29101 -1.80388,-0.21976 -3.83812,-0.27943 -5.7606,-0.31699 -10.02548,-0.0347 -19.60008,2.28387 -29.03338,6.54812 z"
   stroke-linecap="round"
   id="path34" />
</g>
		<g
   transform="translate(-62.48288,78.6095)"
   id="g35">
<path
   style="opacity:1;fill:#001718;fill-rule:nonzero;stroke:none;stroke-width:1;stroke-linecap:butt;stroke-linejoin:miter;stroke-miterlimit:4;stroke-dasharray:none;stroke-dashoffset:0"
   paint-order="stroke"
   transform="translate(-62.51712,-201.60401)"
   d="m 102.793,193.93782 c -21.95584,12.2774 -50.47755,17.16748 -75.40965,14.72058 -1.71925,-0.18353 -3.4337,-0.39351 -5.14211,-0.62233 1.72812,-0.11511 3.45021,-0.21144 5.16757,-0.28098 25.61416,-1.02454 51.10669,-5.45634 75.38419,-13.81727 z"
   stroke-linecap="round"
   id="path35" />
</g>
		<g
   transform="translate(-60.94094,88.314017)"
   id="g36">
<path
   style="opacity:1;fill:#001718;fill-rule:nonzero;stroke:none;stroke-width:1;stroke-linecap:butt;stroke-linejoin:miter;stroke-miterlimit:4;stroke-dasharray:none;stroke-dashoffset:0"
   paint-order="stroke"
   transform="translate(-64.05906,-211.30853)"
   d="m 105.87687,200.02377 c -9.40076,8.97302 -21.90386,14.11139 -34.24519,17.63347 -15.96258,4.47981 -32.90074,5.75487 -49.39043,4.45171 3.66357,-0.45131 7.31401,-0.73383 10.95428,-1.06364 10.71963,-1.2104 21.81486,-2.65007 32.32182,-5.17032 14.08428,-3.33788 28.17426,-7.84113 40.35952,-15.85122 z"
   stroke-linecap="round"
   id="path36" />
</g>
		<g
   transform="translate(-48.177565,97.230174)"
   id="g37">
<path
   style="opacity:1;fill:#001718;fill-rule:nonzero;stroke:none;stroke-width:1;stroke-linecap:butt;stroke-linejoin:miter;stroke-miterlimit:4;stroke-dasharray:none;stroke-dashoffset:0"
   paint-order="stroke"
   transform="translate(-76.822435,-220.22468)"
   d="m 112.90457,205.42569 c -3.04714,4.98988 -7.83004,8.90353 -12.58947,12.19928 -14.6677,9.83952 -32.22563,14.5782 -49.59745,16.70006 -3.32923,0.27672 -6.6501,0.5618 -9.97735,0.69865 3.2337,-0.85455 6.47376,-1.56088 9.70552,-2.27551 20.31861,-4.93556 47.39984,-12.25386 62.45875,-27.32248 z"
   stroke-linecap="round"
   id="path37" />
</g>
		<g
   transform="translate(62.48285,78.609337)"
   id="g38">
<path
   style="opacity:1;fill:#001718;fill-rule:nonzero;stroke:none;stroke-width:1;stroke-linecap:butt;stroke-linejoin:miter;stroke-miterlimit:4;stroke-dasharray:none;stroke-dashoffset:0"
   paint-order="stroke"
   transform="translate(-187.48285,-201.60385)"
   d="m 147.20697,193.93782 c 24.27681,8.36079 49.77063,12.79283 75.38419,13.81728 1.71736,0.0695 3.43945,0.16586 5.16757,0.28098 -1.70842,0.22882 -3.42285,0.4388 -5.14203,0.62202 -24.93266,2.44616 -53.44574,-2.43987 -75.40973,-14.72028 z"
   stroke-linecap="round"
   id="path38" />
</g>
		<g
   transform="translate(60.94092,88.314043)"
   id="g39">
<path
   style="opacity:1;fill:#001718;fill-rule:nonzero;stroke:none;stroke-width:1;stroke-linecap:butt;stroke-linejoin:miter;stroke-miterlimit:4;stroke-dasharray:none;stroke-dashoffset:0"
   paint-order="stroke"
   transform="translate(-185.94092,-211.30855)"
   d="m 144.12311,200.02377 c 12.18518,8.01007 26.2753,12.51335 40.35944,15.85141 10.50729,2.52013 21.60202,3.95966 32.3219,5.17006 3.64026,0.32988 7.29071,0.6124 10.95428,1.06369 -16.48782,1.30336 -33.42938,0.028 -49.39032,-4.45189 -12.34152,-3.52173 -24.84468,-8.66044 -34.2453,-17.63327 z"
   stroke-linecap="round"
   id="path39" />
</g>
		<g
   transform="translate(48.177535,97.230174)"
   id="g40">
<path
   style="opacity:1;fill:#001718;fill-rule:nonzero;stroke:none;stroke-width:1;stroke-linecap:butt;stroke-linejoin:miter;stroke-miterlimit:4;stroke-dasharray:none;stroke-dashoffset:0"
   paint-order="stroke"
   transform="translate(-173.17754,-220.22468)"
   d="m 137.0954,205.42569 c 15.06064,15.06769 42.12148,22.38181 62.45866,27.3226 3.23186,0.71451 6.47192,1.42084 9.70561,2.27539 -3.32726,-0.13686 -6.64813,-0.42194 -9.97731,-0.69872 -17.37039,-2.12129 -34.93103,-6.86087 -49.59746,-16.69998 -4.75955,-3.29586 -9.54212,-7.20922 -12.5895,-12.19929 z"
   stroke-linecap="round"
   id="path40" />
</g>
		<g
   transform="translate(-8.917791,17.726461)"
   id="g41">
<path
   style="opacity:1;fill:#001718;fill-rule:nonzero;stroke:none;stroke-width:1;stroke-linecap:butt;stroke-linejoin:miter;stroke-miterlimit:4;stroke-dasharray:none;stroke-dashoffset:0"
   paint-order="stroke"
   transform="translate(-116.08221,-140.72097)"
   d="m 105.71038,154.20015 c 8.43262,5.42513 17.55653,4.15654 16.61506,-7.78435 -0.44317,-4.28854 -1.98621,-8.55508 -4.05544,-12.64032 -2.04414,-4.11771 -4.61488,-8.09082 -6.89522,-12.32167 3.60706,3.16315 6.90093,6.65381 9.65697,10.69949 4.05607,6.06108 7.24324,14.40617 4.23578,21.7713 -3.90404,9.00724 -14.57864,7.02441 -19.55715,0.27555 z"
   stroke-linecap="round"
   id="path41" />
</g>
		<g
   transform="translate(8.9177504,17.726563)"
   id="g42">
<path
   style="opacity:1;fill:#001718;fill-rule:nonzero;stroke:none;stroke-width:1;stroke-linecap:butt;stroke-linejoin:miter;stroke-miterlimit:4;stroke-dasharray:none;stroke-dashoffset:0"
   paint-order="stroke"
   transform="translate(-133.91775,-140.72107)"
   d="m 144.28958,154.20015 c -4.98029,6.74818 -15.65237,8.73289 -19.55711,-0.27574 -3.00761,-7.36577 0.17987,-15.70886 4.23566,-21.77112 2.75613,-4.04567 6.05,-7.53632 9.65706,-10.69948 -2.28033,4.23085 -4.85107,8.20396 -6.89522,12.32167 -2.06923,4.08524 -3.61226,8.35178 -4.05543,12.6405 -0.94307,11.94477 8.19121,13.20647 16.61504,7.78417 z"
   stroke-linecap="round"
   id="path42" />
</g>
		<g
   transform="translate(-80.36497,-53.377651)"
   id="g43">
<path
   style="opacity:1;fill:#001718;fill-rule:nonzero;stroke:none;stroke-width:1;stroke-linecap:butt;stroke-linejoin:miter;stroke-miterlimit:4;stroke-dasharray:none;stroke-dashoffset:0"
   paint-order="stroke"
   transform="translate(-44.63503,-69.61686)"
   d="M 89.27004,96.9978 C 84.54942,88.13329 82.30784,80.73734 78.90224,71.28952 77.219,66.61983 75.86491,58.45454 74.51545,53.67773 73.7167,50.85038 73.27825,45.81034 72.06163,42.45492 71.71105,37.77977 71.17696,33.15774 70.59257,28.67914 70.33211,39.2677 70.3308,49.89647 68.49084,60.11996 65.04918,80.62158 53.44701,98.30775 32.28261,103.04418 c -8.20028,1.93465 -24.16196,3.87 -32.28259,1.63487 0,0 4.18609,1.66322 4.18603,1.66285 20.93642,8.71931 43.90427,3.95166 57.60222,-14.75333 2.19142,-2.99581 3.96496,-6.15888 5.39977,-9.44205 6.4588,6.58514 13.09596,12.6216 22.082,14.85128 z"
   stroke-linecap="round"
   id="path43" />
</g>
		<g
   transform="translate(80.364935,-53.377651)"
   id="g44">
<path
   style="opacity:1;fill:#001718;fill-rule:nonzero;stroke:none;stroke-width:1;stroke-linecap:butt;stroke-linejoin:miter;stroke-miterlimit:4;stroke-dasharray:none;stroke-dashoffset:0"
   paint-order="stroke"
   transform="translate(-205.36493,-69.61686)"
   d="m 160.72992,96.9978 c 4.72063,-8.86451 6.9622,-16.26046 10.3678,-25.70828 1.68324,-4.66969 3.03734,-12.83498 4.3868,-17.61179 0.79874,-2.82735 1.23718,-7.86739 2.45381,-11.22281 0.35059,-4.67515 0.88467,-9.29718 1.46906,-13.77578 0.26047,10.58856 0.26178,21.21733 2.10173,31.44082 3.44167,20.50162 15.04384,38.18779 36.20824,42.92422 8.20027,1.93465 24.16196,3.87 32.28259,1.63487 0,0 -4.1861,1.66322 -4.18604,1.66285 -20.93642,8.71931 -43.90427,3.95166 -57.60222,-14.75333 -2.19142,-2.99581 -3.96497,-6.15888 -5.39978,-9.44205 -6.45879,6.58514 -13.09594,12.6216 -22.08199,14.85128 z"
   stroke-linecap="round"
   id="path44" />
</g>
		<g
   transform="translate(-5.6792526,-53.331876)"
   id="g45">
<path
   style="opacity:1;fill:#001718;fill-rule:nonzero;stroke:none;stroke-width:1;stroke-linecap:butt;stroke-linejoin:miter;stroke-miterlimit:4;stroke-dasharray:none;stroke-dashoffset:0"
   paint-order="stroke"
   transform="translate(-119.32075,-69.662635)"
   d="m 113.19257,101.25912 c -7.12125,-5.85692 -10.49323,-16.04292 -9.15898,-25.29307 1.12537,-5.69081 4.58983,-11.21304 5.88,-16.70463 0.54205,-2.30186 0.55535,-4.87111 0.13846,-7.47289 -1.05092,-7.03183 -4.60004,-14.38964 -8.37637,-20.57511 1.1e-4,-3e-5 5.65709,1.29704 5.65709,1.29704 8.1341,2.04536 14.33836,7.40133 19.6715,13.44446 11.57316,12.95815 12.62991,29.1784 5.40545,44.48052 -3.29781,6.98866 -8.17484,13.20274 -14.25565,17.67641 5.23762,-5.41783 9.01203,-11.96397 11.4156,-18.83907 3.52718,-10.24113 3.87352,-21.31821 -1.01195,-30.97218 -4.49687,-9.08389 -12.47901,-17.92008 -22.35175,-20.84573 2.4e-4,7.4e-4 2.70621,-3.82981 2.7065,-3.82721 5.41054,7.82861 9.34007,17.50407 7.01221,27.20835 -1.54916,5.96635 -5.04431,10.44991 -6.81314,16.12751 -1.60835,8.18138 -0.0552,16.68145 4.08103,24.2956 z"
   stroke-linecap="round"
   id="path45" />
</g>
		<g
   transform="translate(5.5678888,-51.189605)"
   id="g46">
<path
   style="opacity:1;fill:#001718;fill-rule:nonzero;stroke:none;stroke-width:1;stroke-linecap:butt;stroke-linejoin:miter;stroke-miterlimit:4;stroke-dasharray:none;stroke-dashoffset:0"
   paint-order="stroke"
   transform="translate(-130.56789,-71.804907)"
   d="m 127.93893,104.6451 c 15.95361,-13.7038 18.67911,-39.67498 4.34329,-55.29373 -4.58742,-5.00333 -10.7679,-8.69454 -17.89829,-10.3009 7.33991,-0.63154 15.00896,2.26657 20.78149,7.32277 18.00752,15.56502 14.58955,48.1126 -7.22649,58.27186 z"
   stroke-linecap="round"
   id="path46" />
</g>
		<g
   transform="translate(-5e-6,98.087084)"
   id="g47">
<polygon
   style="opacity:1;fill:#001718;fill-rule:nonzero;stroke:none;stroke-width:1;stroke-linecap:butt;stroke-linejoin:miter;stroke-miterlimit:4;stroke-dasharray:none;stroke-dashoffset:0"
   paint-order="stroke"
   points="4.663075,-6.668435 -1.5e-05,-10.391015 -4.663075,-6.668435 -1.5e-05,10.391015 "
   id="polygon46" />
</g>
		<g
   transform="translate(-35.538925,9.2174706)"
   id="g48">
<path
   style="opacity:1;fill:#50f9f9;fill-rule:nonzero;stroke:none;stroke-width:1;stroke-linecap:butt;stroke-linejoin:miter;stroke-miterlimit:4;stroke-dasharray:none;stroke-dashoffset:0"
   paint-order="stroke"
   transform="translate(-89.461075,-132.21198)"
   d="m 61.96585,119.44413 c 18.85339,-3.30194 39.19947,6.18665 49.34634,22.32684 1.02996,1.60818 1.99894,3.68468 4.14471,3.46565 0.62051,-0.0601 1.27926,-0.40199 1.4994,-1.06245 -0.31982,1.48689 -2.35637,1.78821 -3.55655,1.12601 -1.32152,-0.6741 -2.09373,-1.94522 -2.91949,-2.95811 C 99.16377,127.48885 80.60279,118.91713 61.96585,119.44413 Z"
   stroke-linecap="round"
   id="path47" />
</g>
		<g
   transform="translate(-10.339855,1.6898039)"
   id="g49">
<path
   style="opacity:1;fill:#50f9f9;fill-rule:nonzero;stroke:none;stroke-width:1;stroke-linecap:butt;stroke-linejoin:miter;stroke-miterlimit:4;stroke-dasharray:none;stroke-dashoffset:0"
   paint-order="stroke"
   transform="translate(-114.66015,-124.68431)"
   d="m 105.23186,115.52941 c 9.06974,1.60648 16.99305,9.28545 18.85657,18.30981 -4.56811,-7.74406 -10.97474,-13.9802 -18.85657,-18.30981 z"
   stroke-linecap="round"
   id="path48" />
</g>
		<g
   transform="translate(-48.14314,-74.171961)"
   id="g50">
<path
   style="opacity:1;fill:#50f9f9;fill-rule:nonzero;stroke:none;stroke-width:1;stroke-linecap:butt;stroke-linejoin:miter;stroke-miterlimit:4;stroke-dasharray:none;stroke-dashoffset:0"
   paint-order="stroke"
   transform="translate(-76.85686,-48.82255)"
   d="M 94.97083,89.89214 C 87.23559,75.73428 82.40842,59.98269 80.49955,43.9545 78.3777,23.98475 82.20844,13.69739 58.74289,7.75296 c 3.9586,0.66959 7.92789,1.56226 11.64746,3.31279 12.91756,5.82442 10.47786,21.08081 12.14868,32.64737 1.83663,15.90705 6.20133,31.41027 12.4318,46.17902 z"
   stroke-linecap="round"
   id="path49" />
</g>
		<g
   transform="translate(-3.0689935,-60.878526)"
   id="g51">
<path
   style="opacity:1;fill:#50f9f9;fill-rule:nonzero;stroke:none;stroke-width:1;stroke-linecap:butt;stroke-linejoin:miter;stroke-miterlimit:4;stroke-dasharray:none;stroke-dashoffset:0"
   paint-order="stroke"
   transform="translate(-121.93101,-62.115985)"
   d="m 124.85067,77.2916 c 1.07648,-10.71719 -1.60083,-21.39415 -7.57911,-30.35123 8.40801,7.14812 11.62898,20.08947 7.57911,30.35123 z"
   stroke-linecap="round"
   id="path50" />
</g>
		<g
   transform="translate(-6.2922511,-45.638441)"
   id="g52">
<path
   style="opacity:1;fill:#50f9f9;fill-rule:nonzero;stroke:none;stroke-width:1;stroke-linecap:butt;stroke-linejoin:miter;stroke-miterlimit:4;stroke-dasharray:none;stroke-dashoffset:0"
   paint-order="stroke"
   transform="translate(-118.70775,-77.35607)"
   d="m 117.04243,90.11581 c 0.79073,-8.55701 1.45264,-16.94662 2.04698,-25.51948 2.26167,8.35937 1.50746,17.62513 -2.04698,25.51948 z"
   stroke-linecap="round"
   id="path51" />
</g>
		<g
   transform="translate(12.178413,-53.821631)"
   id="g53">
<path
   style="opacity:1;fill:#50f9f9;fill-rule:nonzero;stroke:none;stroke-width:1;stroke-linecap:butt;stroke-linejoin:miter;stroke-miterlimit:4;stroke-dasharray:none;stroke-dashoffset:0"
   paint-order="stroke"
   transform="translate(-137.17841,-69.17288)"
   d="m 136.49077,84.65921 c 2.47093,-10.34201 1.73454,-21.0561 -2.09727,-30.97266 6.5552,8.65875 7.41479,21.50745 2.09727,30.97266 z"
   stroke-linecap="round"
   id="path52" />
</g>
		<g
   transform="translate(-35.103885,50.533052)"
   id="g54">
<path
   style="opacity:1;fill:#50f9f9;fill-rule:nonzero;stroke:none;stroke-width:1;stroke-linecap:butt;stroke-linejoin:miter;stroke-miterlimit:4;stroke-dasharray:none;stroke-dashoffset:0"
   paint-order="stroke"
   transform="translate(-89.896115,-173.52756)"
   d="m 106.54333,170.37613 c -9.67638,6.17921 -22.28813,7.96605 -33.29443,4.68839 11.35051,0.38066 22.49278,-1.17715 33.29443,-4.68839 z"
   stroke-linecap="round"
   id="path53" />
</g>
		<g
   transform="translate(-48.82239,38.123863)"
   id="g55">
<path
   style="opacity:1;fill:#50f9f9;fill-rule:nonzero;stroke:none;stroke-width:1;stroke-linecap:butt;stroke-linejoin:miter;stroke-miterlimit:4;stroke-dasharray:none;stroke-dashoffset:0"
   paint-order="stroke"
   transform="translate(-76.17761,-161.11837)"
   d="m 90.49928,171.43002 c -12.86697,1.46912 -26.05078,-8.07983 -28.64334,-20.77263 5.42675,11.32479 16.18906,19.14246 28.64334,20.77263 z"
   stroke-linecap="round"
   id="path54" />
</g>
		<g
   transform="translate(-61.335775,22.410394)"
   id="g56">
<path
   style="opacity:1;fill:#50f9f9;fill-rule:nonzero;stroke:none;stroke-width:1;stroke-linecap:butt;stroke-linejoin:miter;stroke-miterlimit:4;stroke-dasharray:none;stroke-dashoffset:0"
   paint-order="stroke"
   transform="translate(-63.664225,-145.40491)"
   d="m 69.10235,155.76186 c -6.50208,-4.69215 -10.71577,-12.69414 -10.87625,-20.71391 1.36963,3.164 3.28959,7.65617 4.90324,10.63782 1.52471,3.00907 4.1571,7.17353 5.97301,10.07609 z"
   stroke-linecap="round"
   id="path55" />
</g>
		<g
   transform="translate(35.538905,9.2177017)"
   id="g57">
<path
   style="opacity:1;fill:#50f9f9;fill-rule:nonzero;stroke:none;stroke-width:1;stroke-linecap:butt;stroke-linejoin:miter;stroke-miterlimit:4;stroke-dasharray:none;stroke-dashoffset:0"
   paint-order="stroke"
   transform="translate(-160.5389,-132.21221)"
   d="m 188.03415,119.44413 c -18.63629,-0.52731 -37.1985,8.04504 -48.5144,22.89799 -0.82578,1.01283 -1.59798,2.28395 -2.91948,2.95807 -1.20114,0.66342 -3.2375,0.36081 -3.55661,-1.12601 0.22017,0.66045 0.87892,1.00232 1.49945,1.06241 2.14662,0.21835 3.11554,-1.85786 4.1447,-3.46556 10.1463,-16.13998 30.4936,-25.62913 49.34634,-22.3269 z"
   stroke-linecap="round"
   id="path56" />
</g>
		<g
   transform="translate(10.339975,1.6899189)"
   id="g58">
<path
   style="opacity:1;fill:#50f9f9;fill-rule:nonzero;stroke:none;stroke-width:1;stroke-linecap:butt;stroke-linejoin:miter;stroke-miterlimit:4;stroke-dasharray:none;stroke-dashoffset:0"
   paint-order="stroke"
   transform="translate(-135.33997,-124.68443)"
   d="m 144.76814,115.52941 c -7.88191,4.32963 -14.28845,10.5658 -18.85633,18.31004 1.86327,-9.02444 9.78642,-16.70355 18.85633,-18.31004 z"
   stroke-linecap="round"
   id="path57" />
</g>
		<g
   transform="translate(48.14303,-74.172041)"
   id="g59">
<path
   style="opacity:1;fill:#50f9f9;fill-rule:nonzero;stroke:none;stroke-width:1;stroke-linecap:butt;stroke-linejoin:miter;stroke-miterlimit:4;stroke-dasharray:none;stroke-dashoffset:0"
   paint-order="stroke"
   transform="translate(-173.14303,-48.82247)"
   d="m 155.02916,89.89214 c 6.23035,-14.76829 10.59526,-30.27226 12.4317,-46.17912 1.66846,-11.56 -0.76425,-26.83069 12.14896,-32.64713 3.71941,-1.75066 7.68871,-2.64333 11.64708,-3.31309 -23.48721,5.95652 -19.6272,16.24313 -21.75623,36.20184 -1.90901,16.02785 -6.73636,31.77996 -14.47151,45.9375 z"
   stroke-linecap="round"
   id="path58" />
</g>
		<g
   transform="translate(35.10391,50.532987)"
   id="g60">
<path
   style="opacity:1;fill:#50f9f9;fill-rule:nonzero;stroke:none;stroke-width:1;stroke-linecap:butt;stroke-linejoin:miter;stroke-miterlimit:4;stroke-dasharray:none;stroke-dashoffset:0"
   paint-order="stroke"
   transform="translate(-160.10391,-173.5275)"
   d="m 143.45667,170.37613 c 10.80171,3.51128 21.94395,5.06902 33.29448,4.68797 -11.00622,3.27802 -23.61799,1.49134 -33.29448,-4.68797 z"
   stroke-linecap="round"
   id="path59" />
</g>
		<g
   transform="translate(48.82233,38.123774)"
   id="g61">
<path
   style="opacity:1;fill:#50f9f9;fill-rule:nonzero;stroke:none;stroke-width:1;stroke-linecap:butt;stroke-linejoin:miter;stroke-miterlimit:4;stroke-dasharray:none;stroke-dashoffset:0"
   paint-order="stroke"
   transform="translate(-173.82233,-161.11828)"
   d="m 159.50073,171.43002 c 12.45482,-1.63011 23.21666,-9.44835 28.6432,-20.7728 -2.59243,12.69318 -15.77642,22.24186 -28.6432,20.7728 z"
   stroke-linecap="round"
   id="path60" />
</g>
		<g
   transform="translate(61.335695,22.410324)"
   id="g62">
<path
   style="opacity:1;fill:#50f9f9;fill-rule:nonzero;stroke:none;stroke-width:1;stroke-linecap:butt;stroke-linejoin:miter;stroke-miterlimit:4;stroke-dasharray:none;stroke-dashoffset:0"
   paint-order="stroke"
   transform="translate(-186.33569,-145.40483)"
   d="m 180.89766,155.76186 c 1.82846,-2.92296 4.43962,-7.0522 5.97302,-10.07613 1.60635,-2.96606 3.54326,-7.49573 4.90305,-10.63792 -0.16031,8.01977 -4.37387,16.02182 -10.87607,20.71405 z"
   stroke-linecap="round"
   id="path61" />
</g>
		<g
   transform="translate(-95.297346,-69.437929)"
   id="g63">
<path
   style="opacity:1;fill:#50f9f9;fill-rule:nonzero;stroke:none;stroke-width:1;stroke-linecap:butt;stroke-linejoin:miter;stroke-miterlimit:4;stroke-dasharray:none;stroke-dashoffset:0"
   paint-order="stroke"
   transform="translate(-29.702654,-53.556582)"
   d="m 32.70371,26.32778 c -1.41113,3.42209 -1.77399,7.17072 -2.12164,10.85597 -1.77651,-5.08494 -1.48655,-10.85891 0.79045,-15.74029 -5.02759,5.73436 -6.88965,13.62503 -7.2293,21.2437 -0.33965,7.61867 0.66519,15.23905 0.55528,22.8645 -0.10991,7.62544 -1.46807,15.54603 -5.95734,21.71093 5.9789,-5.55931 8.73006,-13.68726 11.0638,-21.51073 2.95406,-9.903 5.5972,-19.89869 7.92473,-29.96736 0.5985,-2.58909 1.17617,-5.18299 1.73289,-7.78138 0.3643,-1.70033 1.76987,-5.0444 0.94748,-6.71199 -2.25239,-4.56719 -6.86863,3.00512 -7.70635,5.03665 z"
   stroke-linecap="round"
   id="path62" />
</g>
		<g
   transform="translate(95.297356,-69.437929)"
   id="g64">
<path
   style="opacity:1;fill:#50f9f9;fill-rule:nonzero;stroke:none;stroke-width:1;stroke-linecap:butt;stroke-linejoin:miter;stroke-miterlimit:4;stroke-dasharray:none;stroke-dashoffset:0"
   paint-order="stroke"
   transform="translate(-220.29736,-53.556582)"
   d="m 217.2963,26.32778 c 1.41112,3.42209 1.77399,7.17072 2.12163,10.85597 1.77652,-5.08494 1.48656,-10.85891 -0.79045,-15.74029 5.02759,5.73436 6.88966,13.62503 7.22931,21.2437 0.33965,7.61867 -0.66519,15.23905 -0.55528,22.8645 0.10991,7.62544 1.46808,15.54603 5.95734,21.71093 -5.9789,-5.55931 -8.73006,-13.68726 -11.0638,-21.51073 -2.95406,-9.903 -5.5972,-19.89869 -7.92473,-29.96736 -0.5985,-2.58909 -1.17618,-5.18299 -1.73289,-7.78138 -0.3643,-1.70033 -1.76987,-5.0444 -0.94748,-6.71199 2.25238,-4.56719 6.86862,3.00512 7.70635,5.03665 z"
   stroke-linecap="round"
   id="path63" />
</g>
</g>
</g>
</g>
</g>
<g
   transform="matrix(1.9211538,0,0,1.9211538,835.50254,181.52399)"
   id="text-logo">
<g
   paint-order="stroke"
   id="g68">
		<g
   id="text-logo-path-0">
<path
   style="opacity:1;fill:#001718;fill-rule:nonzero;stroke:#545455;stroke-width:1.30946;stroke-linecap:butt;stroke-linejoin:miter;stroke-miterlimit:4;stroke-dasharray:none;stroke-dashoffset:0"
   paint-order="stroke"
   transform="translate(-220.44,40.7)"
   d="M 3.52,-37.4 2.42,0 H 23.54 L 22.77,-26.51 29.04,-26.95 40.59,0 H 64.02 L 46.86,-30.25 c 10.12,-3.63 14.63,-10.01 14.63,-21.67 0,-13.97 -9.68,-22.88 -31.02,-22.88 H 2.42 Z m 19.03,-1.87 0.55,-20.13 h 6.16 c 6.49,0 10.78,3.41 10.78,8.69 0,7.04 -5.39,11.66 -13.64,11.66 -1.43,0 -2.86,-0.11 -3.85,-0.22 z m 55.99,-12.65 1.76,14.08 c 6.38,-2.2 13.42,-3.85 20.35,-3.85 4.73,0 7.37,1.32 7.37,5.72 v 0.66 l -9.35,1.65 c -15.51,2.75 -23.43,9.02 -23.43,18.37 0,11 5.61,16.39 17.27,16.39 6.6,0 12.1,-3.85 16.61,-9.79 V 0 h 18.59 l -2.53,-39.6 c -0.88,-13.42 -5.72,-18.7 -17.27,-18.7 -11.99,0 -22,3.19 -29.37,6.38 z m 13.97,34.87 c 0,-4.51 6.05,-6.82 15.51,-8.25 v 8.91 c -2.86,2.53 -6.38,4.29 -10.56,4.29 -2.97,0 -4.95,-1.98 -4.95,-4.95 z m 67.43,-64.35 h -18.59 l 1.1,41.8 V 0 l 5.83,1.1 5.06,-3.63 c 5.83,2.53 11,3.63 16.5,3.63 15.73,0 27.94,-16.5 27.94,-36.3 0,-13.09 -4.4,-23.1 -19.03,-23.1 -8.36,0 -14.96,3.52 -20.02,8.25 z m 1.54,65.01 -1.43,-22.22 c 2.42,-2.86 5.39,-4.18 9.79,-4.18 5.06,0 10.34,1.1 10.34,10.56 0,7.81 -3.74,18.26 -12.98,18.26 -1.65,0 -3.52,-0.66 -5.72,-2.42 z m 68.53,-65.01 h -18.59 l 1.1,41.8 V 0 l 5.83,1.1 5.06,-3.63 c 5.83,2.53 11,3.63 16.5,3.63 15.73,0 27.94,-16.5 27.94,-36.3 0,-13.09 -4.4,-23.1 -19.03,-23.1 -8.36,0 -14.96,3.52 -20.02,8.25 z m 1.54,65.01 -1.43,-22.22 c 2.42,-2.86 5.39,-4.18 9.79,-4.18 5.06,0 10.34,1.1 10.34,10.56 0,7.81 -3.74,18.26 -12.98,18.26 -1.65,0 -3.52,-0.66 -5.72,-2.42 z M 299.86,-57.2 H 283.47 V 0 h 19.69 z m -18.37,-14.63 c 0,6.49 4.4,10.78 11,10.78 6.49,0 10.89,-4.29 10.89,-10.78 0,-6.38 -4.4,-10.67 -10.89,-10.67 -6.6,0 -11,4.29 -11,10.67 z M 349.03,1.1 c 3.19,0 6.82,-0.22 10.45,-0.66 l -2.86,-16.94 c -1.98,0.88 -5.28,1.21 -8.69,1.21 -5.72,0 -7.81,-2.31 -7.81,-8.47 v -20.46 h 15.4 V -57.2 h -15.4 v -10.56 l -24.86,16.06 v 7.48 h 8.25 l -0.99,24.75 c 0,15.29 10.45,20.57 26.51,20.57 z M 367.95,0 h 19.25 l 16.17,-27.83 13.31,27.72 21.78,0.11 -18.81,-37.4 17.71,-37.4 h -19.25 l -12.65,25.52 -12.87,-25.41 -21.78,-0.11 19.14,35.97 z"
   stroke-linecap="round"
   id="path67" />
</g>
</g>
</g>
</svg>
