<?xml version="1.0" encoding="UTF-8" standalone="no" ?>
<!DOCTYPE svg PUBLIC "-//W3C//DTD SVG 1.1//EN" "http://www.w3.org/Graphics/SVG/1.1/DTD/svg11.dtd">
<svg xmlns="http://www.w3.org/2000/svg" xmlns:xlink="http://www.w3.org/1999/xlink" version="1.1" width="1280" height="1024" viewBox="0 0 1280 1024" xml:space="preserve">
<desc>Created with Fabric.js 5.3.0</desc>
<defs>
</defs>
<g transform="matrix(1 0 0 1 640 512)" id="background-logo"  >
<rect style="stroke: none; stroke-width: 0; stroke-dasharray: none; stroke-linecap: butt; stroke-dashoffset: 0; stroke-linejoin: miter; stroke-miterlimit: 4; fill: rgb(255,255,255); fill-opacity: 0; fill-rule: nonzero; opacity: 1;"  paint-order="stroke"  x="-640" y="-512" rx="0" ry="0" width="1280" height="1024" />
</g>
<g transform="matrix(3.4053166215914055 0 0 3.4053166215914055 642.8068490674052 375.92248105832414)" id="logo-logo"  >
<g style=""  paint-order="stroke"   >
		<g transform="matrix(0.8476196085126915 0 0 0.8476196085126914 0 0)"  >
<g style=""  paint-order="stroke"   >
		<g transform="matrix(1 0 0 1 0.3907942052140214 104.43986346929634)"  >
<path style="stroke: none; stroke-width: 1; stroke-dasharray: none; stroke-linecap: butt; stroke-dashoffset: 0; stroke-linejoin: miter; stroke-miterlimit: 4; fill: rgb(255,237,204); fill-rule: nonzero; opacity: 1;"  paint-order="stroke"  transform=" translate(-125.39079420521402, -227.43437460131156)" d="M 110.89776 229.58768 C 112.20228 233.82033 114.55997 237.86837 118.19623 240.39713 C 121.83248999999999 242.92589 126.87226 243.67513 130.76064 241.55439 C 133.36721 240.13274 135.20731 237.63165 136.67534 235.05093000000002 C 139.34624 230.35568000000004 141.07242 225.12558 141.72112 219.76291000000003 C 136.02642 218.78458000000003 131.02433000000002 215.49172000000004 126.36281000000001 212.07745000000003 C 126.32601000000001 212.05050000000003 119.99598 215.09214000000003 119.23564000000002 215.29670000000002 C 116.53592000000002 216.02300000000002 114.00307000000002 215.82325 111.28641000000002 216.08913 C 108.50030000000002 216.36182000000002 109.02148000000001 218.37729000000002 109.26319000000002 220.73862000000003 C 109.56895 223.72575 110.01131 226.71152 110.89776 229.58768 z" stroke-linecap="round" />
</g>
		<g transform="matrix(1 0 0 1 -8.564741207111297 97.32702858417025)"  >
<path style="stroke: none; stroke-width: 1; stroke-dasharray: none; stroke-linecap: butt; stroke-dashoffset: 0; stroke-linejoin: miter; stroke-miterlimit: 4; fill: rgb(204,186,155); fill-rule: nonzero; opacity: 1;"  paint-order="stroke"  transform=" translate(-116.4352587928887, -220.32153971618547)" d="M 121.14694 224.87041 C 122.26597 224.40431999999998 123.36234 223.76824 124.06244 222.77863 C 124.88705 221.61306 125.05879 220.08438999999998 124.83663 218.67399999999998 C 124.61448 217.26360999999997 124.0353 215.93810999999997 123.46153 214.6307 C 118.91265 217.59753999999998 113.51324 219.2438 108.08288999999999 219.31957 C 107.54884 219.32703 108.72456999999999 223.13627 108.92859999999999 223.54494 C 109.42021999999999 224.52965 109.95826999999998 224.92708 111.00455999999998 225.29671 C 114.21119 226.42955 118.03699 226.16573 121.14694 224.87041 z" stroke-linecap="round" />
</g>
		<g transform="matrix(1 0 0 1 8.564739348995602 97.32702858417025)"  >
<path style="stroke: none; stroke-width: 1; stroke-dasharray: none; stroke-linecap: butt; stroke-dashoffset: 0; stroke-linejoin: miter; stroke-miterlimit: 4; fill: rgb(204,186,155); fill-rule: nonzero; opacity: 1;"  paint-order="stroke"  transform=" translate(-133.5647393489956, -220.32153971618547)" d="M 128.85306 224.87041 C 127.73403 224.40431999999998 126.63766 223.76824 125.93756 222.77863 C 125.11295 221.61306 124.94121 220.08438999999998 125.16337 218.67399999999998 C 125.38552 217.26360999999997 125.9647 215.93810999999997 126.53847 214.6307 C 131.08735000000001 217.59753999999998 136.48677 219.2438 141.91711 219.31957 C 142.45115 219.32703 141.27543 223.13627 141.07139 223.54494 C 140.57977 224.52965 140.04173 224.92708 138.99545 225.29671 C 135.7888 226.42955 131.963 226.16573 128.85306 224.87041 z" stroke-linecap="round" />
</g>
		<g transform="matrix(1 0 0 1 0 -23.828386132015225)"  >
<path style="stroke: none; stroke-width: 1; stroke-dasharray: none; stroke-linecap: butt; stroke-dashoffset: 0; stroke-linejoin: miter; stroke-miterlimit: 4; fill: rgb(39,170,225); fill-rule: nonzero; opacity: 1;"  paint-order="stroke"  transform=" translate(-125, -99.166125)" d="M 188.84442 88.61726 C 188.84442 88.61726 207.37639000000001 121.35084 250 104.64505 C 250 104.64505 231.8289 85.69596 235.86693 48.68071 C 235.86693 48.68071 237.64267 37.21695 231.82891 26.022859999999998 C 226.01510000000002 14.828779999999998 220.38779 10.543779999999998 220.38779 10.543779999999998 C 220.38779 10.543779999999998 210.06841 8.524769999999998 205.13304 10.543779999999998 C 205.13304 10.543779999999998 199.74901 2.019009999999998 186.51321 -1.7763568394002505e-15 C 186.51321 -1.7763568394002505e-15 171.70712999999998 5.384089999999998 163.85541999999998 17.498149999999995 C 163.85541999999998 17.498149999999995 164.52841999999998 59.44875999999999 153.98465 78.96592 C 153.98465 78.96592 146.48891999999998 73.58785 125.01601999999998 73.58233 L 125.01601999999998 73.58209 C 125.01055999999998 73.58209 125.00547999999998 73.58220999999999 125.00002999999998 73.58220999999999 C 124.99457999999998 73.58220999999999 124.98942999999998 73.58209 124.98397999999997 73.58209 L 124.98397999999997 73.58233 C 103.51108999999997 73.58785 96.01534999999997 78.96592 96.01534999999997 78.96592 C 85.47155999999997 59.44875999999999 86.14456999999997 17.498149999999995 86.14456999999997 17.498149999999995 C 78.29286 5.38409 63.48679 0 63.48679 0 C 50.25099 2.01901 44.866969999999995 10.54378 44.866969999999995 10.54378 C 39.93160999999999 8.52477 29.612219999999994 10.54378 29.612219999999994 10.54378 C 29.612219999999994 10.54378 23.984919999999995 14.82878 18.171099999999996 26.02286 C 12.357339999999995 37.21695 14.133079999999996 48.680710000000005 14.133079999999996 48.680710000000005 C 18.17109 85.69596 0 104.64505 0 104.64505 C 42.62362 121.35085 61.15557 88.61726 61.15557 88.61726 C 65.55445999999999 96.47399 71.19399 101.76745 71.19399 101.76745 C 71.19399 101.76745 70.43764 110.67736 61.86464 113.09881999999999 C 53.29157 115.52027999999999 52.494330000000005 122.93554999999999 52.494330000000005 122.93554999999999 C 46.66163 144.24739 61.24344000000001 163.98883 61.24344000000001 163.98883 C 61.24344000000001 163.98883 54.737680000000005 165.33484 62.54003000000001 178.12196 C 70.24373000000001 190.74746 123.63603 198.14305000000002 124.98398 198.32786 L 124.98398 198.33225 C 124.98398 198.33225 124.99571 198.33061999999998 125.00003000000001 198.33005 C 125.00436 198.33061 125.01602000000001 198.33225 125.01602000000001 198.33225 L 125.01602000000001 198.32786 C 126.36397000000001 198.14305 179.75627000000003 190.74746 187.45997 178.12196 C 195.26230999999999 165.33484 188.75656 163.98883 188.75656 163.98883 C 188.75656 163.98883 203.33836 144.24739 197.50566 122.93555 C 197.50566 122.93555 196.70842000000002 115.52028000000001 188.13542 113.09882 C 179.56236 110.67736000000001 178.806 101.76745 178.806 101.76745 C 178.806 101.76745 184.44554 96.47399 188.84442 88.61726 z" stroke-linecap="round" />
</g>
		<g transform="matrix(1 0 0 1 -0.00000171490562195231 -24.543065786183718)"  >
<path style="stroke: none; stroke-width: 1; stroke-dasharray: none; stroke-linecap: butt; stroke-dashoffset: 0; stroke-linejoin: miter; stroke-miterlimit: 4; fill: rgb(10,123,163); fill-rule: nonzero; opacity: 1;"  paint-order="stroke"  transform=" translate(-124.99999828509438, -98.4514453458315)" d="M 147.30321 84.36369 C 145.25762 81.58902 141.79451 79.92058 138.34972000000002 80.05009000000001 C 134.78400000000002 80.18412000000001 130.85888000000003 83.41574000000001 128.99164000000002 86.45645000000002 C 127.12446000000001 89.49716000000002 126.27830000000002 93.04938000000001 125.70558000000001 96.57138000000002 C 125.41577000000001 98.35370000000002 125.18134 100.14812000000002 125.00003000000001 101.94857000000002 C 124.81872000000001 100.14812000000002 124.58422000000002 98.35370000000002 124.29441000000001 96.57138000000002 C 123.72176000000002 93.04938000000001 122.87559000000002 89.49716000000002 121.00835000000001 86.45645000000002 C 119.14112 83.41573000000002 115.21598 80.18411000000002 111.65027 80.05009000000001 C 108.20548000000001 79.92058000000002 104.74237000000001 81.58902 102.69677 84.36369 C 100.65117 87.13836 100.08152 90.94001 101.22401 94.19239 C 101.9273 93.00844000000001 102.6306 91.82449 103.3339 90.64054 C 104.39304 102.6234 113.38255 113.50359 124.94245000000001 116.82314 C 124.9437 116.83537 124.94427 116.8476 124.94552 116.85982999999999 C 124.96395 116.85462999999999 124.98158000000001 116.84722999999998 125.00002 116.84194999999998 C 125.01846 116.84721999999998 125.03608000000001 116.85461999999998 125.05452000000001 116.85982999999999 C 125.05578000000001 116.84759999999999 125.05634 116.83536999999998 125.05759 116.82314 C 136.61743 113.50358999999999 145.60699 102.62339999999999 146.66613 90.64053999999999 C 147.36944 91.82448999999998 148.07273 93.00844 148.77602000000002 94.19238999999999 C 149.91846 90.94001 149.34882 87.13837 147.30321 84.36369 z" stroke-linecap="round" />
</g>
		<g transform="matrix(1 0 0 1 -71.24436 -57.56728345034949)"  >
<path style="stroke: none; stroke-width: 1; stroke-dasharray: none; stroke-linecap: butt; stroke-dashoffset: 0; stroke-linejoin: miter; stroke-miterlimit: 4; fill: rgb(10,123,163); fill-rule: nonzero; opacity: 1;"  paint-order="stroke"  transform=" translate(-53.75564, -65.42722768166573)" d="M 79.88306 110.05654 C 80.92728 107.95524999999999 82.11819 105.9284 83.42832 103.98176 C 86.65355 100.51263999999999 90.81801 98.13382 95.84869 97.79986 C 84.56461 78.06345 78.1812 55.54922 77.42723 32.82728 C 77.32330999999999 29.694940000000003 77.30981999999999 26.48063 76.18251 23.556380000000004 C 75.01285999999999 20.522060000000003 72.73427 18.051120000000004 70.31537999999999 15.877520000000004 C 68.08494999999999 13.873310000000004 65.63690999999999 12.022570000000004 62.80533999999999 11.035610000000004 C 59.973849999999985 10.048650000000004 56.69242999999999 10.020240000000003 54.10132999999999 11.529500000000004 C 54.93212999999999 26.896010000000004 50.74295999999999 42.493550000000006 42.32504999999999 55.37608000000001 C 45.22283999999999 42.782680000000006 45.01436999999999 28.54500000000001 43.34956999999999 15.730210000000007 C 44.787769999999995 26.80062000000001 41.59320999999999 38.43804000000001 39.14679999999999 49.07665000000001 C 36.67529999999999 59.82439000000001 32.87715999999999 70.26500000000001 27.882159999999992 80.09671 C 25.682149999999993 84.42693 23.249839999999992 88.6393 20.596459999999993 92.70761 C 18.346589999999992 96.15716 15.660469999999993 100.18634 11.662589999999993 101.76747 C 20.300499999999992 102.51868 32.63757999999999 99.96991 40.34440999999999 95.99718 C 46.35452999999999 92.89902000000001 50.706569999999985 87.33437 54.21539999999999 81.55435 C 62.78877999999999 67.43156 68.63469999999998 48.627159999999996 70.59187999999999 28.679139999999997 C 72.51863999999999 41.32441 68.31296999999999 61.2163 71.58435999999999 73.5821 C 72.79032 78.14059 73.86438999999999 81.99561 75.44758999999999 85.82352999999999 C 72.16779999999999 83.01203999999998 68.95155 80.12617999999999 65.84071999999999 77.12874 C 66.0559 79.09550999999999 63.66761999999999 80.65193 63.91553999999999 82.61487 C 64.00948 83.35874 62.05118999999999 85.43175 62.453509999999994 86.06443 C 66.55091999999999 92.50804 69.62129999999999 96.34694 75.37039999999999 101.12933 C 73.99020999999999 103.60396999999999 73.60601999999999 105.83421 71.92058999999999 108.11186 C 70.49461999999998 110.03886 68.76252999999998 112.03316 67.55167999999999 114.06339999999999 C 66.7195 115.4587 71.50672999999999 114.77797999999999 72.78808 114.93609999999998 C 74.10924999999999 115.09915999999998 75.42151999999999 115.33389999999999 76.72155 115.61938999999998 C 79.28996 116.18332999999998 81.80811999999999 116.95554999999999 84.29002999999999 117.81989999999998 C 85.51493999999998 118.24655999999997 86.73111999999999 118.69779999999997 87.94322999999999 119.15950999999997 C 88.67430999999999 119.43796999999996 91.00149999999998 119.90018999999997 91.43448999999998 120.51617999999996 C 88.38701 116.18087 84.96285 111.56555 79.88306 110.05654 z" stroke-linecap="round" />
</g>
		<g transform="matrix(1 0 0 1 -33.6316879694927 24.10105228012739)"  >
<path style="stroke: none; stroke-width: 1; stroke-dasharray: none; stroke-linecap: butt; stroke-dashoffset: 0; stroke-linejoin: miter; stroke-miterlimit: 4; fill: rgb(10,123,163); fill-rule: nonzero; opacity: 1;"  paint-order="stroke"  transform=" translate(-91.3683120305073, -147.0955634121426)" d="M 106.59209 168.77113 C 103.93925 169.99301 100.99531999999999 170.46237 98.07732 170.58806 C 86.48732 171.0873 74.78041999999999 166.04802 67.17663999999999 157.28676000000002 C 70.42112999999999 158.37036 73.82106999999999 158.98734000000002 77.23942 159.11283 C 73.30635 158.3328 70.29451999999999 155.04606 68.52197 151.44945 C 66.74942 147.85284000000001 65.94754999999999 143.86856 64.6443 140.0766 C 63.34105 136.28462000000002 61.37606 132.49504000000002 58.01418 130.30982 C 61.193760000000005 125.88952 66.78353 123.57705 72.2286 123.56917 C 77.67368 123.5613 82.96092 125.63514 87.54026999999999 128.58106 C 92.11962 131.52697 96.0799 135.3239 99.98113 139.12249 C 98.19748999999999 134.95333 95.48277999999999 131.18559 92.09259999999999 128.17396 C 98.96683999999999 130.99374 103.65208999999999 137.30365999999998 108.24069999999999 143.14753 C 109.22138999999999 144.39650999999998 110.23089999999999 145.65357 111.52264 146.57717 C 112.81438999999999 147.50078 114.44467 148.06454 116.00206999999999 147.75445 C 118.78336999999999 147.20068999999998 120.36443999999999 144.10026 120.48257999999998 141.26682 C 120.60071999999998 138.43338 119.68773999999999 135.66253 119.44550999999998 132.83701 C 121.78940999999999 135.7533 123.65761999999998 139.12341999999998 124.39431999999998 142.79165 C 125.13100999999997 146.45989 124.65874999999998 150.44581 122.65689999999998 153.6067 C 120.65504999999997 156.7676 117.02517999999998 158.96240999999998 113.28675999999999 158.81110999999999 C 113.08026999999998 161.14711 113.06503 162.91923 111.61612999999998 164.83781 C 110.32117 166.55251 108.53532 167.8761 106.59209 168.77113 z" stroke-linecap="round" />
</g>
		<g transform="matrix(1 0 0 1 71.24436500000002 -57.567293450349496)"  >
<path style="stroke: none; stroke-width: 1; stroke-dasharray: none; stroke-linecap: butt; stroke-dashoffset: 0; stroke-linejoin: miter; stroke-miterlimit: 4; fill: rgb(10,123,163); fill-rule: nonzero; opacity: 1;"  paint-order="stroke"  transform=" translate(-196.24436500000002, -65.42721768166572)" d="M 170.11694 110.05654 C 169.07272 107.95524999999999 167.88182 105.9284 166.57168 103.98176 C 163.34644999999998 100.51263999999999 159.182 98.13382 154.15132 97.79986 C 165.43538999999998 78.06344 171.8188 55.54922 172.57277 32.82727 C 172.67669999999998 29.69493 172.69017 26.48062 173.81749 23.55637 C 174.98713999999998 20.52205 177.26573 18.05111 179.68462 15.877510000000001 C 181.91504 13.8733 184.3631 12.02256 187.19466 11.0356 C 190.02614 10.04864 193.30756 10.02023 195.89867 11.529490000000001 C 195.06787 26.896 199.25704000000002 42.49354 207.67495000000002 55.376070000000006 C 204.77717 42.78267 204.98563000000001 28.544990000000006 206.65043000000003 15.730200000000004 C 205.21223000000003 26.800610000000006 208.40678000000003 38.438030000000005 210.85320000000002 49.076640000000005 C 213.3247 59.824380000000005 217.12284000000002 70.26499000000001 222.11783000000003 80.0967 C 224.31784000000002 84.42692 226.75015000000002 88.63929 229.40354000000002 92.7076 C 231.65340000000003 96.15715 234.33951000000002 100.18633 238.33741000000003 101.76746 C 229.69949000000003 102.51867 217.36240000000004 99.9699 209.65557000000004 95.99717 C 203.64545000000004 92.89901 199.29342000000003 87.33436 195.78460000000004 81.55434 C 187.21122000000003 67.43155 181.36529000000004 48.62714999999999 179.40812000000005 28.679129999999994 C 177.48136000000005 41.3244 181.68702000000005 61.216289999999994 178.41564000000005 73.58209 C 177.20968000000005 78.14058 176.13560000000004 81.9956 174.55240000000006 85.82351999999999 C 177.83219000000005 83.01202999999998 181.04843000000005 80.12616999999999 184.15927000000005 77.12872999999999 C 183.94409000000005 79.09549999999999 186.33237000000005 80.65191999999999 186.08446000000004 82.61486 C 185.99051000000003 83.35873 187.94881000000004 85.43173999999999 187.54650000000004 86.06442 C 183.44909000000004 92.50802999999999 180.37870000000004 96.34693 174.62960000000004 101.12931999999999 C 176.00979000000004 103.60395999999999 176.39399000000003 105.8342 178.07941000000005 108.11184999999999 C 179.50537000000006 110.03885 181.23746000000006 112.03314999999999 182.44832000000005 114.06338999999998 C 183.28049000000004 115.45868999999999 178.49327000000005 114.77796999999998 177.21193000000005 114.93608999999998 C 175.89075000000005 115.09914999999998 174.57849000000004 115.33388999999998 173.27844000000005 115.61937999999998 C 170.71005000000005 116.18331999999998 168.19188000000005 116.95553999999998 165.70996000000005 117.81988999999997 C 164.48506000000006 118.24654999999997 163.26887000000005 118.69778999999997 162.05676000000005 119.15949999999997 C 161.32570000000004 119.43795999999996 158.99849000000006 119.90017999999996 158.56550000000004 120.51616999999996 C 161.61299 116.18087 165.03716 111.56555 170.11694 110.05654 z" stroke-linecap="round" />
</g>
		<g transform="matrix(1 0 0 1 33.63168296949266 24.10105228012739)"  >
<path style="stroke: none; stroke-width: 1; stroke-dasharray: none; stroke-linecap: butt; stroke-dashoffset: 0; stroke-linejoin: miter; stroke-miterlimit: 4; fill: rgb(10,123,163); fill-rule: nonzero; opacity: 1;"  paint-order="stroke"  transform=" translate(-158.63168296949266, -147.0955634121426)" d="M 143.40791 168.77113 C 146.06073999999998 169.99301 149.00467999999998 170.46237 151.92267999999999 170.58806 C 163.51268 171.0873 175.21958999999998 166.04802 182.82335999999998 157.28676000000002 C 179.57886999999997 158.37036 176.17893999999998 158.98734000000002 172.76056999999997 159.11283 C 176.69363999999996 158.3328 179.70546999999996 155.04606 181.47801999999996 151.44945 C 183.25056999999995 147.85284000000001 184.05243999999996 143.86856 185.35568999999995 140.0766 C 186.65893999999994 136.28462000000002 188.62391999999994 132.49504000000002 191.98581999999996 130.30982 C 188.80623999999997 125.88952 183.21646999999996 123.57705 177.77138999999997 123.56917 C 172.32631999999998 123.5613 167.03906999999998 125.63514 162.45972999999998 128.58106 C 157.88036999999997 131.52697 153.9201 135.3239 150.01887 139.12249 C 151.80252 134.95333 154.51721999999998 131.18559 157.9074 128.17396 C 151.03316 130.99374 146.34790999999998 137.30365999999998 141.7593 143.14753 C 140.77862 144.39650999999998 139.76910999999998 145.65357 138.47736 146.57717 C 137.18561 147.50078 135.55533 148.06454 133.99791 147.75445 C 131.21661 147.20068999999998 129.63556 144.10026 129.51739999999998 141.26682 C 129.39924999999997 138.43338 130.31224999999998 135.66253 130.55447999999998 132.83701 C 128.21058 135.7533 126.34236999999999 139.12341999999998 125.60566999999999 142.79165 C 124.86898 146.45989 125.34123999999998 150.44581 127.34308999999999 153.6067 C 129.34493999999998 156.7676 132.97481 158.96240999999998 136.71322999999998 158.81110999999999 C 136.91970999999998 161.14711 136.93496 162.91923 138.38385 164.83781 C 139.67883 166.55251 141.46468 167.8761 143.40791 168.77113 z" stroke-linecap="round" />
</g>
		<g transform="matrix(1 0 0 1 -31.695780000000013 24.386498433214882)"  >
<path style="stroke: none; stroke-width: 1; stroke-dasharray: none; stroke-linecap: butt; stroke-dashoffset: 0; stroke-linejoin: miter; stroke-miterlimit: 4; fill: rgb(237,28,36); fill-rule: nonzero; opacity: 1;"  paint-order="stroke"  transform=" translate(-93.30421999999999, -147.3810095652301)" d="M 93.83798 146.22635 C 98.4937 151.16869 103.71393 155.95889 110.20259 157.95882 C 108.30814 159.56675 106.39699 161.18628 104.21798 162.38054 C 102.03896 163.57480999999999 99.54536 164.32847999999998 97.07444 164.0659 C 93.84397 163.72261 91.02637999999999 161.70225 88.74655999999999 159.38791 C 81.16247999999999 151.69231 78.35643999999999 140.94283000000001 76.40584999999999 130.64392 C 83.30892 134.37453 88.53108 140.59273 93.83798 146.22635 z" stroke-linecap="round" />
</g>
		<g transform="matrix(1 0 0 1 31.695785 24.386498433214882)"  >
<path style="stroke: none; stroke-width: 1; stroke-dasharray: none; stroke-linecap: butt; stroke-dashoffset: 0; stroke-linejoin: miter; stroke-miterlimit: 4; fill: rgb(237,28,36); fill-rule: nonzero; opacity: 1;"  paint-order="stroke"  transform=" translate(-156.695785, -147.3810095652301)" d="M 156.16202 146.22635 C 151.5063 151.16869 146.28607000000002 155.95889 139.79741 157.95882 C 141.69185000000002 159.56675 143.603 161.18628 145.78201 162.38054 C 147.96104000000003 163.57480999999999 150.45463 164.32847999999998 152.92555000000002 164.0659 C 156.15603000000002 163.72261 158.97362 161.70225 161.25343 159.38791 C 168.83752 151.69231 171.64355 140.94283000000001 173.59416000000002 130.64392 C 166.69107 134.37453 161.46892 140.59273 156.16202 146.22635 z" stroke-linecap="round" />
</g>
		<g transform="matrix(1 0 0 1 -31.04729430908415 22.787704332908163)"  >
<path style="stroke: none; stroke-width: 1; stroke-dasharray: none; stroke-linecap: butt; stroke-dashoffset: 0; stroke-linejoin: miter; stroke-miterlimit: 4; fill: rgb(150,20,29); fill-rule: nonzero; opacity: 1;"  paint-order="stroke"  transform=" translate(-93.95270569091585, -145.78221546492338)" d="M 88.86593 147.24759 C 91.35505 150.95357 93.71549 154.91751 97.36061000000001 157.49493 C 101.00573000000001 160.07235 106.41180000000001 160.82426 109.76517000000001 157.87722000000002 C 101.98020000000001 152.72150000000002 94.07540000000002 147.45974 88.11154000000002 140.27506000000002 C 85.30375000000002 136.89251000000002 82.60238000000003 132.86977000000002 78.34224000000002 131.78510000000003 C 78.08331000000001 133.36811000000003 77.93589000000001 135.89556000000002 78.78250000000001 137.34791000000004 C 79.46168000000002 138.51303000000004 80.77345000000001 138.83070000000004 81.87707000000002 139.56494000000004 C 84.78658 141.50061 86.94147 144.38231 88.86593 147.24759 z" stroke-linecap="round" />
</g>
		<g transform="matrix(1 0 0 1 31.047294824864537 22.78770433290819)"  >
<path style="stroke: none; stroke-width: 1; stroke-dasharray: none; stroke-linecap: butt; stroke-dashoffset: 0; stroke-linejoin: miter; stroke-miterlimit: 4; fill: rgb(150,20,29); fill-rule: nonzero; opacity: 1;"  paint-order="stroke"  transform=" translate(-156.04729482486454, -145.7822154649234)" d="M 161.13408 147.24759 C 158.64496 150.95357 156.28452000000001 154.91751 152.63939000000002 157.49493 C 148.99426000000003 160.07235000000003 143.58820000000003 160.82426 140.23483000000002 157.87722000000002 C 148.0198 152.72150000000002 155.92460000000003 147.45974 161.88846 140.27506000000002 C 164.69625000000002 136.89251000000002 167.39762000000002 132.86977000000002 171.65776 131.78510000000003 C 171.9167 133.36811000000003 172.0641 135.89556000000002 171.2175 137.34791000000004 C 170.53833 138.51303000000004 169.22655 138.83070000000004 168.12293 139.56494000000004 C 165.21342 141.50061 163.05853 144.38231 161.13408 147.24759 z" stroke-linecap="round" />
</g>
		<g transform="matrix(1 0 0 1 -0.40837207581176926 -52.37756613201523)"  >
<path style="stroke: none; stroke-width: 1; stroke-dasharray: none; stroke-linecap: butt; stroke-dashoffset: 0; stroke-linejoin: miter; stroke-miterlimit: 4; fill: rgb(39,170,225); fill-rule: nonzero; opacity: 1;"  paint-order="stroke"  transform=" translate(-124.59162792418823, -70.61694499999999)" d="M 118.15407 108.11186 C 118.15407 108.11186 106.30244 95.05147 106.42192 79.54185999999999 C 106.55036 62.86855999999999 120.16112 56.065159999999985 104.0209 33.12202999999999 C 104.0209 33.12202999999999 114.61206 35.301329999999986 119.32075 40.54771999999999 C 119.32075 40.54771999999999 139.60575 43.12629999999999 144.28959 64.46875999999999 C 148.97343 85.81121 134.02132 106.53564 118.15407 108.11186 z" stroke-linecap="round" />
</g>
		<g transform="matrix(1 0 0 1 -0.4345421288881255 -43.05478661229692)"  >
<path style="stroke: none; stroke-width: 1; stroke-dasharray: none; stroke-linecap: butt; stroke-dashoffset: 0; stroke-linejoin: miter; stroke-miterlimit: 4; fill: rgb(10,123,163); fill-rule: nonzero; opacity: 1;"  paint-order="stroke"  transform=" translate(-124.56545787111187, -79.9397245197183)" d="M 117.52708 95.80097 C 121.68062 88.17251 123.29756 79.19019 122.06503 70.59215 C 123.38204999999999 75.83122 124.23607 81.18659000000001 124.61386999999999 86.57545 C 130.36451 75.11814000000001 130.24839 60.90017 124.31137 49.538320000000006 C 130.00245999999999 54.819680000000005 133.36735 62.37283000000001 134.13491 70.09890000000001 C 134.90247 77.82497000000002 133.17783 85.69075000000001 129.83973999999998 92.70063000000002 C 133.76877 91.07819000000002 136.9338 87.91686000000001 139.11228999999997 84.26667000000002 C 141.29076999999998 80.61649000000001 142.5501 76.48756000000002 143.41845999999998 72.32635000000002 C 143.03159999999997 79.27149000000001 142.17298999999997 86.28038000000002 139.63674999999998 92.75743000000003 C 137.10050999999999 99.23448000000003 132.73483 105.19065000000003 126.64291999999998 108.54824000000002 C 124.53975999999997 109.70741000000002 122.15789999999997 110.55725000000002 119.77108999999997 110.29253000000003 C 116.90839999999997 109.97503000000003 114.44257999999998 108.10148000000002 112.52822999999998 105.94949000000003 C 107.22373999999998 99.98652000000003 105.18212999999997 91.59421000000003 105.82783999999998 83.63948000000002 C 106.47057999999998 75.72131000000002 109.52774999999998 68.04859000000002 113.50683999999998 61.23513000000002 C 113.43662999999998 63.84415000000002 111.79506999999998 66.59422000000002 111.31199999999998 69.20757000000002 C 110.74432999999998 72.27858000000002 110.61321999999998 75.42873000000002 110.89919999999998 78.53789000000002 C 111.47085 84.7528 113.72063 90.83679 117.52708 95.80097 z" stroke-linecap="round" />
</g>
		<g transform="matrix(1 0 0 1 1.421085e-14 60.032194941971596)"  >
<path style="stroke: none; stroke-width: 1; stroke-dasharray: none; stroke-linecap: butt; stroke-dashoffset: 0; stroke-linejoin: miter; stroke-miterlimit: 4; fill: rgb(230,231,232); fill-rule: nonzero; opacity: 1;"  paint-order="stroke"  transform=" translate(-125.00000000000001, -183.02670607398682)" d="M 219.95514 158.36649 C 219.95514 158.36649 224.44183 152.64303999999998 226.23651 148.78168 C 226.23651 148.78168 211.42303 152.80942 195.56489000000002 145.49680999999998 C 195.56489000000002 145.49680999999998 190.78362 160.24268999999998 181.58985 165.81731 C 172.39615 171.39185999999998 166.78773 172.82542999999998 166.78773 172.82542999999998 C 166.78773 172.82542999999998 181.46838000000002 174.93192 187.47599000000002 172.82542999999998 C 187.47599000000002 172.82542999999998 168.52935000000002 183.23269 144.66422000000003 172.82560999999998 C 144.66422000000003 172.82560999999998 138.74335000000002 170.73987 136.38912000000002 158.61526999999998 C 136.38912000000002 158.61526999999998 128.30349 160.71908 124.99999000000003 148.78168 C 121.69643000000002 160.71907 113.61086000000003 158.61526999999998 113.61086000000003 158.61526999999998 C 111.25663000000003 170.73986999999997 105.33576000000004 172.82560999999998 105.33576000000004 172.82560999999998 C 81.47063000000003 183.23268 62.524000000000036 172.82542999999998 62.524000000000036 172.82542999999998 C 68.53161000000003 174.93192 83.21219000000004 172.82542999999998 83.21219000000004 172.82542999999998 C 83.21219000000004 172.82542999999998 77.60383000000003 171.39186999999998 68.41007000000003 165.81731 C 59.21637000000003 160.24268999999998 54.435100000000034 145.49680999999998 54.435100000000034 145.49680999999998 C 38.57697000000003 152.80942 23.763490000000033 148.78168 23.763490000000033 148.78168 C 25.558170000000032 152.64303999999998 30.044860000000032 158.36649 30.044860000000032 158.36649 C 32.28820000000003 174.95331 53.82432000000003 191.58204 53.82432000000003 191.58204 L 42.158930000000026 193.93783000000002 C 59.88142000000003 206.83735000000001 80.29586000000003 205.42568000000003 80.29586000000003 205.42568000000003 C 108.56206 234.29973 125 212.97246 125 212.97246 C 125 212.97246 141.43794 234.29973 169.70415 205.42568 C 169.70415 205.42568 190.11858999999998 206.83735 207.84108 193.93783 L 196.17561 191.58203999999998 C 196.17561 191.58203 217.71179 174.95331 219.95514 158.36649 z" stroke-linecap="round" />
</g>
		<g transform="matrix(1 0 0 1 -0.00001499999999055035 55.900348162976854)"  >
<path style="stroke: none; stroke-width: 1; stroke-dasharray: none; stroke-linecap: butt; stroke-dashoffset: 0; stroke-linejoin: miter; stroke-miterlimit: 4; fill: rgb(170,170,170); fill-rule: nonzero; opacity: 1;"  paint-order="stroke"  transform=" translate(-124.99998500000001, -178.89485929499207)" d="M 139.92953 174.21126 C 136.42057 174.26224000000002 132.91821 175.02242 129.72058 176.47316 C 131.89506 174.09166000000002 135.10254 172.68776 138.32739 172.70601000000002 C 133.7216 172.09052000000003 128.94919000000002 173.21677000000003 125.00003000000001 175.65321000000003 C 121.05088 173.21676000000002 116.2784 172.09051000000002 111.67261 172.70601000000002 C 114.89752 172.68776000000003 118.10493000000001 174.09166000000002 120.27941000000001 176.47316 C 117.08178000000001 175.02242 113.57941000000001 174.26224000000002 110.07046000000001 174.21126 C 108.29786000000001 174.18549000000002 101.85105000000001 174.00423 101.58721000000001 176.43993 C 105.74106000000002 177.15476 109.67071000000001 177.46019 113.67092000000001 179.02765 C 114.61046 179.39584 124.54904 184.83513 124.13492000000001 185.2493 C 124.42329000000001 185.02452 124.71166000000001 184.7997 125.00002 184.57492 C 125.28839 184.7997 125.5767 185.02452 125.86506 185.2493 C 125.45094 184.83513 135.38953 179.39585 136.32907 179.02765 C 140.32933 177.46018999999998 144.25897 177.15475999999998 148.41276 176.43993 C 148.14894 174.00423 141.70213 174.18549 139.92953 174.21126 z" stroke-linecap="round" />
</g>
		<g transform="matrix(1 0 0 1 -0.00000228402439006459 36.79904686950985)"  >
<path style="stroke: none; stroke-width: 1; stroke-dasharray: none; stroke-linecap: butt; stroke-dashoffset: 0; stroke-linejoin: miter; stroke-miterlimit: 4; fill: rgb(170,170,170); fill-rule: nonzero; opacity: 1;"  paint-order="stroke"  transform=" translate(-124.99999771597561, -159.79355800152507)" d="M 139.21135 166.10855 C 138.3887 164.32135 137.56612 162.53419 136.74353000000002 160.74698 C 136.44112 160.08997 136.12622000000002 159.41535000000002 135.59804000000003 158.9212 C 134.70114000000004 158.08206 133.38831000000002 157.9262 132.20580000000004 157.59425 C 129.87385000000003 156.93943 127.84479000000005 155.38528 126.48668000000004 153.38401 C 125.99881000000003 151.89753 125.57423000000003 150.39033999999998 125.22672000000003 148.86490999999998 C 125.17988000000003 149.27557 125.09922000000003 149.68014 125.00000000000003 150.07983 C 124.90079000000003 149.68014 124.82013000000003 149.27557 124.77328000000003 148.86490999999998 C 124.42577000000003 150.39034999999998 124.00119000000002 151.89753 123.51332000000002 153.38401 C 122.15521000000003 155.38528 120.12617000000002 156.93943 117.79420000000002 157.59425 C 116.61175000000001 157.9262 115.29886000000002 158.08205999999998 114.40197000000002 158.9212 C 113.87384000000002 159.41534 113.55888000000002 160.08996 113.25652000000002 160.74698 C 112.43388000000002 162.5342 111.61129000000003 164.32135 110.78866000000002 166.10855 C 110.39995000000002 166.95309 108.20822000000003 170.48004 109.50298000000002 170.71341 C 110.49853000000002 170.89284 113.69823000000002 168.27376 114.62103000000002 167.73039 C 115.72728000000002 167.07896 118.39860000000002 164.7724 119.64463000000002 164.7724 C 121.50221000000002 163.67863 123.41486000000002 162.49933000000001 125.00000000000001 161.05266 C 126.58514000000001 162.49933000000001 128.49779 163.67864 130.35536000000002 164.7724 C 131.60141000000002 164.7724 134.27272000000002 167.07896 135.37897 167.73039 C 136.30178 168.27376 139.50147 170.89284 140.49701000000002 170.71341 C 141.79178 170.48004 139.60005 166.95309 139.21135 166.10855 z" stroke-linecap="round" />
</g>
		<g transform="matrix(1 0 0 1 -62.350239494266816 53.431437412454414)"  >
<path style="stroke: none; stroke-width: 1; stroke-dasharray: none; stroke-linecap: butt; stroke-dashoffset: 0; stroke-linejoin: miter; stroke-miterlimit: 4; fill: rgb(170,170,170); fill-rule: nonzero; opacity: 1;"  paint-order="stroke"  transform=" translate(-62.649760505733184, -176.42594854446963)" d="M 53.10053 167.55627 C 58.21138 169.82557 63.83789 170.92419 69.42699999999999 170.74414000000002 C 61.27662999999999 168.62584 54.17688999999999 162.77368 50.54182999999999 155.17749 C 45.97899999999999 155.62988 41.41615999999999 156.08226000000002 36.85332999999999 156.53464 C 44.44707999999999 167.47303 53.18044999999999 178.12699 64.89854 184.45150999999998 C 57.584669999999996 182.35266 50.50497 179.43896999999998 43.832499999999996 175.78162999999998 C 50.58389 182.38074999999998 57.81733 189.03094 66.83609999999999 191.82225999999997 C 64.47334999999998 193.24574999999996 61.81885999999999 194.18259999999998 59.08601999999999 194.55745999999996 C 65.06258999999999 197.09802999999997 71.67818 198.11858999999995 78.14253 197.49719999999996 C 78.52882 197.46005999999997 80.58282 193.02815999999996 80.91932999999999 192.49867999999995 C 81.96508999999999 190.85325999999995 83.10974999999999 189.27099999999996 84.34525 187.76283999999995 C 85.15163 186.77849999999995 89.43569 183.88214999999997 88.23553999999999 182.62750999999994 C 85.31769999999999 183.02669999999995 82.78107999999999 183.07895999999994 81.48058999999999 182.93010999999996 C 74.48019 182.12885999999995 67.69354999999999 179.56575999999995 61.88032 175.58960999999996 C 58.59524 173.34267 55.61852 170.6404 53.10053 167.55627 z" stroke-linecap="round" />
</g>
		<g transform="matrix(1 0 0 1 62.350239494266816 53.431437412454414)"  >
<path style="stroke: none; stroke-width: 1; stroke-dasharray: none; stroke-linecap: butt; stroke-dashoffset: 0; stroke-linejoin: miter; stroke-miterlimit: 4; fill: rgb(170,170,170); fill-rule: nonzero; opacity: 1;"  paint-order="stroke"  transform=" translate(-187.35023949426682, -176.42594854446963)" d="M 196.89948 167.55627 C 191.78862 169.82557 186.16211 170.92419 180.573 170.74414000000002 C 188.72338000000002 168.62584 195.82311 162.77368 199.45816000000002 155.17749 C 204.02100000000002 155.62988 208.58383000000003 156.08226000000002 213.14667000000003 156.53464 C 205.55292000000003 167.47303 196.81955000000002 178.12699 185.10146000000003 184.45150999999998 C 192.41532000000004 182.35266 199.49503000000004 179.43896999999998 206.16750000000002 175.78162999999998 C 199.41611000000003 182.38074999999998 192.18267000000003 189.03094 183.1639 191.82225999999997 C 185.52665000000002 193.24574999999996 188.18114 194.18259999999998 190.91398 194.55745999999996 C 184.9374 197.09802999999997 178.32182 198.11858999999995 171.85748 197.49719999999996 C 171.47119 197.46005999999997 169.41719 193.02815999999996 169.08067 192.49867999999995 C 168.03491 190.85325999999995 166.89024 189.27099999999996 165.65475 187.76283999999995 C 164.84837000000002 186.77849999999995 160.56431 183.88214999999997 161.76446 182.62750999999994 C 164.68231 183.02669999999995 167.21891000000002 183.07895999999994 168.51940000000002 182.93010999999996 C 175.51980000000003 182.12885999999995 182.30645 179.56575999999995 188.11968000000002 175.58960999999996 C 191.40477 173.34267 194.38148 170.6404 196.89948 167.55627 z" stroke-linecap="round" />
</g>
		<g transform="matrix(1 0 0 1 -22.13431258546872 73.25657244442257)"  >
<path style="stroke: none; stroke-width: 1; stroke-dasharray: none; stroke-linecap: butt; stroke-dashoffset: 0; stroke-linejoin: miter; stroke-miterlimit: 4; fill: rgb(170,170,170); fill-rule: nonzero; opacity: 1;"  paint-order="stroke"  transform=" translate(-102.86568741453128, -196.2510835764378)" d="M 99.52733 178.05704 C 97.59544000000001 180.1086 96.79444000000001 183.16407 97.47139 185.89954 C 97.99586 188.01885000000001 99.33238 189.87255 100.96406 191.32311 C 102.59573 192.77369000000002 104.51814 193.85595 106.46604 194.84192000000002 C 106.0502 193.94499000000002 105.62733 193.02110000000002 105.56994 192.03415 C 105.51256000000001 191.04718 105.90456 189.96871000000002 106.77184 189.49413 C 107.86261999999999 188.89724 109.21173999999999 189.43503 110.29101 190.05249 C 113.81433 192.06819000000002 116.83539999999999 194.95433 119.00989 198.38194000000001 C 119.60793 199.32461 120.1585 200.36601000000002 120.14182 201.48225000000002 C 120.11581 203.22142000000002 118.72912 204.64175000000003 117.25403999999999 205.56344 C 114.74752 207.1296 111.75328999999999 207.81712000000002 108.79771 207.8186 C 102.62526 207.82167 96.52516 204.76492000000002 92.83281 199.81865 C 89.14045999999999 194.87237999999996 87.94422 188.15493999999998 89.70209 182.2381 C 84.7941 185.02414 81.89456 190.77338 82.02347999999999 196.41553 C 82.15239 202.05767999999998 85.09170999999999 207.45461 89.41014999999999 211.088 C 93.72858999999998 214.72138999999999 99.31503999999998 216.66968 104.94069999999999 217.11965999999998 C 108.43024 217.39879 112.05865 217.10098 115.19245 215.54082999999997 C 119.40948999999999 213.44139999999996 122.32749999999999 209.15895999999998 123.30273 204.55027999999996 C 124.27796000000001 199.94159999999994 123.44194 195.06626999999995 121.52143 190.76479999999995 C 119.60092 186.46331999999995 116.64475999999999 182.69226999999995 113.3436 179.33168999999995 C 111.58979 177.54631999999995 109.43533 175.17735999999996 106.76392999999999 175.29338999999996 C 104.05789 175.41093 101.45255 176.01256 99.52733 178.05704 z" stroke-linecap="round" />
</g>
		<g transform="matrix(1 0 0 1 22.134332278549834 73.25657244442257)"  >
<path style="stroke: none; stroke-width: 1; stroke-dasharray: none; stroke-linecap: butt; stroke-dashoffset: 0; stroke-linejoin: miter; stroke-miterlimit: 4; fill: rgb(170,170,170); fill-rule: nonzero; opacity: 1;"  paint-order="stroke"  transform=" translate(-147.13433227854983, -196.2510835764378)" d="M 150.47267 178.05704 C 152.40457 180.1086 153.20556 183.16407 152.52861 185.89954 C 152.00414999999998 188.01885000000001 150.66762 189.87255 149.03594999999999 191.32311 C 147.40427 192.77369000000002 145.48187 193.85595 143.53396999999998 194.84192000000002 C 143.94979999999998 193.94499000000002 144.37267999999997 193.02110000000002 144.43005999999997 192.03415 C 144.48744999999997 191.04718 144.09544999999997 189.96871000000002 143.22816999999998 189.49413 C 142.13737999999998 188.89724 140.78826999999998 189.43503 139.70898999999997 190.05249 C 136.18566999999996 192.06819000000002 133.16459999999998 194.95433 130.99011999999996 198.38194000000001 C 130.39207999999996 199.32461 129.84149999999997 200.36601000000002 129.85818999999995 201.48225000000002 C 129.88418999999996 203.22142000000002 131.27088999999995 204.64175000000003 132.74597999999995 205.56344 C 135.25247999999993 207.1296 138.24670999999995 207.81712000000002 141.20228999999995 207.8186 C 147.37473999999995 207.82167 153.47485999999995 204.76492000000002 157.16720999999995 199.81865 C 160.85955999999996 194.87237999999996 162.05578999999994 188.15493999999998 160.29791999999995 182.2381 C 165.20591999999994 185.02414 168.10544999999996 190.77338 167.97653999999994 196.41553 C 167.84762999999992 202.05767999999998 164.90829999999994 207.45461 160.58986999999993 211.088 C 156.27141999999992 214.72138999999999 150.68497999999994 216.66968 145.05931999999993 217.11965999999998 C 141.56976999999992 217.39879 137.94136999999992 217.10098 134.80756999999994 215.54082999999997 C 130.59052999999994 213.44139999999996 127.67251999999993 209.15895999999998 126.69728999999994 204.55027999999996 C 125.72205999999994 199.94159999999994 126.55807999999993 195.06626999999995 128.47858999999994 190.76479999999995 C 130.39910999999995 186.46331999999995 133.35526999999993 182.69226999999995 136.65641999999994 179.33168999999995 C 138.41021999999995 177.54631999999995 140.56467999999995 175.17735999999996 143.23608999999993 175.29338999999996 C 145.94211 175.41093 148.54745 176.01256 150.47267 178.05704 z" stroke-linecap="round" />
</g>
		<g transform="matrix(1 0 0 1 14.190789999999993 42.60144886798477)"  >
<path style="stroke: none; stroke-width: 1; stroke-dasharray: none; stroke-linecap: butt; stroke-dashoffset: 0; stroke-linejoin: miter; stroke-miterlimit: 4; fill: rgb(0,23,24); fill-rule: nonzero; opacity: 1;"  paint-order="stroke"  transform=" translate(-139.19079, -165.59596)" d="M 139.98427 158.95009 C 138.83615 161.99454 140.01061 166.7068 141.89154000000002 169.72472 C 142.61175000000003 170.8871 143.48288000000002 171.99201 144.66443 172.82540999999998 C 141.76941000000002 172.03934999999998 139.3642 169.88078 137.4744 167.55881999999997 C 135.41629 164.92285999999996 133.91666 161.91478999999998 133.71715 158.36650999999998 C 133.71718 158.36652 139.98427 158.95009 139.98427 158.95009 L 139.98427 158.95009 z" stroke-linecap="round" />
</g>
		<g transform="matrix(1 0 0 1 35.75741499999998 25.787212132822958)"  >
<path style="stroke: none; stroke-width: 1; stroke-dasharray: none; stroke-linecap: butt; stroke-dashoffset: 0; stroke-linejoin: miter; stroke-miterlimit: 4; fill: rgb(0,23,24); fill-rule: nonzero; opacity: 1;"  paint-order="stroke"  transform=" translate(-160.75741499999998, -148.78172326483818)" d="M 171.72482 131.73721 C 171.2704 131.87932 170.83455999999998 132.05349 170.40906999999999 132.24559 C 168.56450999999998 140.42598999999998 164.78328 148.04855 161.03384 155.56431999999998 C 160.13198 157.37203999999997 159.16336 159.25836999999999 157.4974 160.40107999999998 C 155.07763 162.06086999999997 151.79341 161.72448999999997 149.03202 160.73199999999997 C 146.50752999999997 159.82463999999996 143.40384999999998 158.74173999999996 141.14065 157.39386999999996 C 141.68215 156.72537999999997 142.26496 156.07353999999995 142.87478 155.43344999999997 C 139.44360999999998 157.19978999999998 134.50213 159.57168999999996 134.03886 158.92064999999997 C 139.17302 166.13551999999996 149.47645 168.58049999999997 157.87287 165.76721999999995 C 166.26923 162.95392999999996 172.67444 155.67450999999994 175.94082 147.44377999999995 C 177.17165 144.34242999999995 178.02297000000002 141.06496999999996 179.70673 138.18428999999995 C 181.39054 135.30362999999994 184.15161999999998 132.78226999999995 187.47597 132.49605999999994 C 182.54773 130.26353 176.86008 130.13147 171.72482 131.73721 z" stroke-linecap="round" />
</g>
		<g transform="matrix(1 0 0 1 34.854060000000004 19.96454461487491)"  >
<path style="stroke: none; stroke-width: 1; stroke-dasharray: none; stroke-linecap: butt; stroke-dashoffset: 0; stroke-linejoin: miter; stroke-miterlimit: 4; fill: rgb(0,23,24); fill-rule: nonzero; opacity: 1;"  paint-order="stroke"  transform=" translate(-159.85406, -142.95905574689013)" d="M 129.394 158.10284 C 147.26602 158.20174999999998 153.77138 138.16561 167.43755000000002 129.86808 C 174.16115000000002 125.75139999999999 184.25130000000001 124.05940999999999 190.31412 130.12350999999998 C 184.83814 128.16531999999998 178.9569 129.64840999999998 174.13362 132.46961 C 166.90935000000002 136.62624 161.78897 144.55052999999998 155.54678 150.49624 C 149.04688 156.9523 138.43321 162.69337 129.394 158.10284 L 129.394 158.10284 z" stroke-linecap="round" />
</g>
		<g transform="matrix(1 0 0 1 -14.190730000000002 42.601563867984794)"  >
<path style="stroke: none; stroke-width: 1; stroke-dasharray: none; stroke-linecap: butt; stroke-dashoffset: 0; stroke-linejoin: miter; stroke-miterlimit: 4; fill: rgb(0,23,24); fill-rule: nonzero; opacity: 1;"  paint-order="stroke"  transform=" translate(-110.80927, -165.596075)" d="M 116.28279 158.36652 C 115.80778000000001 164.63831000000002 111.25200000000001 170.88263 105.33575 172.82563000000002 C 107.60347 171.17002000000002 108.92598000000001 168.60845 109.76757 166.04304000000002 C 110.5592 163.54109000000003 110.73112 160.84135 110.01569 158.95010000000002 L 116.28279 158.36652 L 116.28279 158.36652 z" stroke-linecap="round" />
</g>
		<g transform="matrix(1 0 0 1 -35.75743 25.787212132822958)"  >
<path style="stroke: none; stroke-width: 1; stroke-dasharray: none; stroke-linecap: butt; stroke-dashoffset: 0; stroke-linejoin: miter; stroke-miterlimit: 4; fill: rgb(0,23,24); fill-rule: nonzero; opacity: 1;"  paint-order="stroke"  transform=" translate(-89.24257, -148.78172326483818)" d="M 78.27515 131.73721 C 78.72958 131.87932 79.16541 132.05349 79.59089999999999 132.24559 C 81.43547 140.42598999999998 85.21668999999999 148.04855 88.96614 155.56431999999998 C 89.86798999999999 157.37203999999997 90.83662 159.25836999999999 92.50256999999999 160.40107999999998 C 94.92235 162.06086999999997 98.20656999999999 161.72448999999997 100.96795999999999 160.73199999999997 C 103.49244999999999 159.82463999999996 106.59612999999999 158.74173999999996 108.85932999999999 157.39386999999996 C 108.31782999999999 156.72537999999997 107.73501999999999 156.07353999999995 107.12519999999999 155.43344999999997 C 110.55636999999999 157.19978999999998 115.49785 159.57168999999996 115.96113 158.92064999999997 C 110.82697 166.13551999999996 100.52353 168.58049999999997 92.12711999999999 165.76721999999995 C 83.73074999999999 162.95392999999996 77.32553999999999 155.67450999999994 74.05915999999999 147.44377999999995 C 72.82834 144.34242999999995 71.97700999999999 141.06496999999996 70.29324999999999 138.18428999999995 C 68.60943999999999 135.30362999999994 65.84835999999999 132.78226999999995 62.52400999999999 132.49605999999994 C 67.45224 130.26353 73.13988 130.13147 78.27515 131.73721 z" stroke-linecap="round" />
</g>
		<g transform="matrix(1 0 0 1 -34.854055 19.964500191224573)"  >
<path style="stroke: none; stroke-width: 1; stroke-dasharray: none; stroke-linecap: butt; stroke-dashoffset: 0; stroke-linejoin: miter; stroke-miterlimit: 4; fill: rgb(0,23,24); fill-rule: nonzero; opacity: 1;"  paint-order="stroke"  transform=" translate(-90.145945, -142.9590113232398)" d="M 120.60598 158.10284 C 111.5634 162.69221 100.95519 156.95253 94.45319 150.49634999999998 C 88.21186 144.55155999999997 83.08966000000001 136.62528999999998 75.8664 132.46948999999998 C 71.04331 129.64861 65.16182 128.16522999999998 59.68591 130.12359999999998 C 65.75205 124.05969999999998 75.83694 125.75208999999998 82.56233 129.86805999999999 C 96.22416 138.16197 102.73936 158.20555 120.60598 158.10284 L 120.60598 158.10284 z" stroke-linecap="round" />
</g>
		<g transform="matrix(1 0 0 1 -31.348219863569383 81.6642988679848)"  >
<path style="stroke: none; stroke-width: 1; stroke-dasharray: none; stroke-linecap: butt; stroke-dashoffset: 0; stroke-linejoin: miter; stroke-miterlimit: 4; fill: rgb(0,23,24); fill-rule: nonzero; opacity: 1;"  paint-order="stroke"  transform=" translate(-93.65178013643062, -204.65881000000002)" d="M 111.04159 217.51678 C 108.82998 216.80921 106.74574 215.60646 104.77095 214.37841 C 100.69154 211.84168 96.72124 209.14301 92.87344 206.29151000000002 C 90.03806 204.19041 87.1584 201.86567000000002 85.82444 198.67205 C 84.44456 195.36843000000002 84.94754999999999 191.55881000000002 86.37897 188.27546 C 87.8104 184.99217000000002 90.09577 182.13068 92.35584999999999 179.31048 C 88.45034999999999 183.19523 83.24229999999999 185.65017 79.15146999999999 189.35443 C 75.06063999999999 193.05867 72.1347 198.97322 74.59290999999999 203.83137000000002 C 75.66528999999998 205.95085000000003 77.59724999999999 207.53053000000003 79.47551999999999 209.04537000000002 C 87.98774999999999 215.91092000000003 96.50003999999998 218.92838000000003 105.01234 225.794 C 107.03054 227.42173000000003 109.13897 229.09556 111.68718 229.73846 C 112.32243 229.89875 112.96607999999999 229.98143000000002 113.61086 230.00714 C 112.42516 225.55826 111.54131 220.62053 111.04159 217.51678 z" stroke-linecap="round" />
</g>
		<g transform="matrix(1 0 0 1 31.348227231819976 81.6642988679848)"  >
<path style="stroke: none; stroke-width: 1; stroke-dasharray: none; stroke-linecap: butt; stroke-dashoffset: 0; stroke-linejoin: miter; stroke-miterlimit: 4; fill: rgb(0,23,24); fill-rule: nonzero; opacity: 1;"  paint-order="stroke"  transform=" translate(-156.34822723181998, -204.65881000000002)" d="M 170.84853 189.35443 C 166.75763 185.65018 161.54966000000002 183.19524 157.64415000000002 179.31048 C 159.90418000000003 182.13069000000002 162.18954000000002 184.99217000000002 163.62103000000002 188.27546 C 165.05246000000002 191.55882 165.55537 195.36843000000002 164.17550000000003 198.67205 C 162.84153000000003 201.86567000000002 159.96186000000003 204.19041 157.12655000000004 206.29151000000002 C 153.27874000000003 209.14301 149.30839000000003 211.84168000000003 145.22904000000003 214.37841000000003 C 143.25425 215.60645000000002 141.17000000000002 216.80915000000005 138.95846000000003 217.51672000000002 C 138.45875000000004 220.62053000000003 137.57496000000003 225.55825000000002 136.38919000000004 230.00714000000002 C 137.03398000000004 229.98143000000002 137.67750000000004 229.89876 138.31274000000005 229.73846000000003 C 140.86102000000005 229.09556000000003 142.96946000000005 227.42173000000003 144.98759000000004 225.79400000000004 C 153.49989000000005 218.92838000000003 162.01217000000003 215.91093000000004 170.52447000000004 209.04537000000005 C 172.40267000000003 207.53052000000005 174.33464000000004 205.95084000000006 175.40708000000004 203.83137000000005 C 177.86523 198.97322 174.93935 193.05867 170.84853 189.35443 z" stroke-linecap="round" />
</g>
		<g transform="matrix(1 0 0 1 -1.421085e-14 107.20658)"  >
<path style="stroke: none; stroke-width: 1; stroke-dasharray: none; stroke-linecap: butt; stroke-dashoffset: 0; stroke-linejoin: miter; stroke-miterlimit: 4; fill: rgb(0,23,24); fill-rule: nonzero; opacity: 1;"  paint-order="stroke"  transform=" translate(-124.99999999999999, -230.20109113201522)" d="M 139.42502 214.41316 L 139.42525999999998 214.41322 C 139.42525999999998 214.41322 137.72020999999998 227.1658 134.95505999999997 234.62145999999998 C 132.44679999999997 241.38440999999997 126.44528999999997 240.75751 126.44528999999997 240.75751 L 125.00005999999998 235.63391 L 123.55483999999997 240.75751 C 123.55483999999997 240.75751 117.55330999999997 241.38442 115.04504999999997 234.62145999999998 C 112.27984999999998 227.1658 110.57479999999998 214.41322 110.57479999999998 214.41322 L 110.57504999999998 214.41316 L 106.16486999999998 214.41316 C 106.16486999999998 214.41316 108.51287999999998 229.88490000000002 112.25281999999999 238.75957 C 115.06925999999999 245.44307 121.23535999999999 245.98525 123.12115999999999 245.98901999999998 C 123.47254999999998 245.98970999999997 123.80519999999999 245.83265999999998 124.05994999999999 245.55006999999998 C 124.58676999999999 244.96568999999997 125.41322999999998 244.96568999999997 125.94004999999999 245.55006999999998 C 126.19479999999999 245.83265999999998 126.52743999999998 245.98970999999997 126.87883999999998 245.98901999999998 C 128.76465 245.98524999999998 134.93068 245.44307999999998 137.74718 238.75957 C 141.48710999999997 229.88491 143.83513 214.41316 143.83513 214.41316 L 139.42502 214.41316 z" stroke-linecap="round" />
</g>
		<g transform="matrix(1 0 0 1 0 75.33778942650704)"  >
<path style="stroke: none; stroke-width: 1; stroke-dasharray: none; stroke-linecap: butt; stroke-dashoffset: 0; stroke-linejoin: miter; stroke-miterlimit: 4; fill: rgb(0,23,24); fill-rule: nonzero; opacity: 1;"  paint-order="stroke"  transform=" translate(-125, -198.33230055852226)" d="M 151.1627 206.90598 C 148.21933 210.14541 144.58551 213.3601 140.061 213.69185 C 135.02249 214.0613 130.25563 210.39568 128.79353 205.85889999999998 C 127.33149 201.32206999999997 128.76854 196.26599 131.69197 192.39988999999997 C 134.61534 188.53378999999998 138.87231 185.72105999999997 143.33462 183.49601999999996 C 144.27607 183.02654999999996 145.3356 182.56663999999995 146.37097 182.80569999999994 C 147.6638 183.10414999999995 148.43402 184.43916999999993 148.44728 185.68768999999995 C 148.46056000000002 186.93620999999996 147.89455 188.11813999999995 147.33974 189.25317999999996 C 149.068 187.21035999999995 150.73317 185.00233999999995 151.28919000000002 182.44737999999995 C 151.84514000000001 179.89235999999994 151.01797000000002 176.90492999999995 148.65763 175.52647999999996 C 146.32711 174.16543999999996 143.31136 174.70097999999996 140.67087 175.40618999999995 C 136.85367 176.42574999999997 128.70926 178.06708999999995 125.00002 181.27531999999997 C 121.29078000000001 178.06709999999995 113.14631 176.42575999999997 109.32911000000001 175.40618999999995 C 106.68862000000001 174.70096999999996 103.67288000000002 174.16543999999996 101.34235000000001 175.52647999999996 C 98.98201000000002 176.90492999999995 98.15484000000001 179.89235999999997 98.71085000000001 182.44737999999995 C 99.2668 185.00233999999995 100.93204 187.21036999999995 102.66024 189.25317999999996 C 102.10542 188.11813999999995 101.53941 186.93620999999996 101.55268 185.68768999999995 C 101.56595999999999 184.43916999999993 102.33623 183.10414999999995 103.62907 182.80569999999994 C 104.66443 182.56663999999995 105.7239 183.02655999999993 106.6654 183.49601999999996 C 111.12772000000001 185.72105999999997 115.38463 188.53378999999995 118.30807 192.39988999999997 C 121.23144 196.26598999999996 122.66848 201.32206999999997 121.20644 205.85889999999998 C 119.7444 210.39566999999997 114.97747 214.06128999999999 109.93898 213.69185 C 105.41454 213.36008999999999 101.78064 210.1454 98.83727 206.90598 C 95.89384 203.66662 93.02772 200.06853 88.83455000000001 198.44059 C 95.10346000000001 205.31849999999997 101.37229 212.19642 107.64120000000001 219.07434999999998 C 108.49825000000001 220.01469999999998 109.39154 220.98163999999997 110.58213 221.51404999999997 C 112.31819 222.29038999999997 114.39654 222.00337999999996 116.18671 221.34398999999996 C 120.24133 219.85050999999996 123.13994000000001 216.71248999999997 125.00003000000001 212.97246999999996 C 126.86018000000001 216.71248999999995 129.75868 219.85050999999996 133.81329 221.34398999999996 C 135.60344999999998 222.00337999999996 137.68180999999998 222.29038999999997 139.41786 221.51404999999997 C 140.6085 220.98163999999997 141.50175 220.01470999999998 142.35879 219.07434999999998 C 148.6277 212.19642 154.89654 205.31850999999997 161.16545 198.44059 C 156.97226 200.06853 154.10614 203.66661 151.1627 206.90598 z" stroke-linecap="round" />
</g>
		<g transform="matrix(1 0 0 1 -52.19845795493765 15.809111991776689)"  >
<path style="stroke: none; stroke-width: 1; stroke-dasharray: none; stroke-linecap: butt; stroke-dashoffset: 0; stroke-linejoin: miter; stroke-miterlimit: 4; fill: rgb(0,23,24); fill-rule: nonzero; opacity: 1;"  paint-order="stroke"  transform=" translate(-72.80154204506235, -138.8036231237919)" d="M 96.90623 123.96658 C 87.47247999999999 119.70227 77.89860999999999 117.38389 67.87284 117.41844999999999 C 65.95035 117.45602 63.9161 117.51567999999999 62.11221999999999 117.73544 C 58.31869 118.24696 57.32066999999999 119.26817 56.22494999999999 123.02651 C 51.91197999999999 138.21865 56.87348999999999 154.65653 68.41009 165.81728 C 52.74042 158.14443 45.236329999999995 137.98484000000002 50.2296 121.3152 C 51.59947 115.66736 55.6476 112.04153000000001 61.54513 111.86143 C 74.31934 111.1739 87.55671 115.46501 96.90623 123.96658 L 96.90623 123.96658 z" stroke-linecap="round" />
</g>
		<g transform="matrix(1 0 0 1 52.19855094953516 15.809106337098427)"  >
<path style="stroke: none; stroke-width: 1; stroke-dasharray: none; stroke-linecap: butt; stroke-dashoffset: 0; stroke-linejoin: miter; stroke-miterlimit: 4; fill: rgb(0,23,24); fill-rule: nonzero; opacity: 1;"  paint-order="stroke"  transform=" translate(-177.19855094953516, -138.80361746911365)" d="M 153.09375 123.96658 C 162.44461 115.46453 175.67963 111.17459 188.45499999999998 111.86121999999999 C 194.35055 112.04363999999998 198.40168999999997 115.66465 199.77042999999998 121.31546999999999 C 204.76438999999996 137.98151 197.25870999999998 158.14902 181.58974999999998 165.81732 C 193.12566999999999 154.65912 198.08888 138.21672 193.77487999999997 123.02645999999999 C 192.67927999999998 119.26817999999999 191.68126999999996 118.24696999999999 187.88772999999998 117.73544999999999 C 186.08384999999998 117.51568999999999 184.04960999999997 117.45601999999998 182.12712999999997 117.41845999999998 C 172.10165 117.3838 162.52705 119.70233 153.09375 123.96658 L 153.09375 123.96658 z" stroke-linecap="round" />
</g>
		<g transform="matrix(1 0 0 1 -62.482879999999994 78.60949984148684)"  >
<path style="stroke: none; stroke-width: 1; stroke-dasharray: none; stroke-linecap: butt; stroke-dashoffset: 0; stroke-linejoin: miter; stroke-miterlimit: 4; fill: rgb(0,23,24); fill-rule: nonzero; opacity: 1;"  paint-order="stroke"  transform=" translate(-62.517120000000006, -201.60401097350206)" d="M 102.793 193.93782 C 80.83716000000001 206.21522 52.315450000000006 211.1053 27.383350000000007 208.6584 C 25.66410000000001 208.47487 23.949650000000005 208.26489 22.24124000000001 208.03607 C 23.96936000000001 207.92096 25.69145000000001 207.82462999999998 27.40881000000001 207.75509 C 53.02297 206.73055 78.5155 202.29875 102.793 193.93782 L 102.793 193.93782 z" stroke-linecap="round" />
</g>
		<g transform="matrix(1 0 0 1 -60.94094000000001 88.31401744990748)"  >
<path style="stroke: none; stroke-width: 1; stroke-dasharray: none; stroke-linecap: butt; stroke-dashoffset: 0; stroke-linejoin: miter; stroke-miterlimit: 4; fill: rgb(0,23,24); fill-rule: nonzero; opacity: 1;"  paint-order="stroke"  transform=" translate(-64.05905999999999, -211.3085285819227)" d="M 105.87687 200.02377 C 96.47610999999999 208.99679 83.97300999999999 214.13516 71.63167999999999 217.65724 C 55.669099999999986 222.13705 38.73093999999999 223.41211 22.241249999999987 222.10895 C 25.904819999999987 221.65764 29.555259999999986 221.37511999999998 33.19552999999999 221.04531 C 43.91515999999999 219.83491 55.01038999999999 218.39524 65.51735 215.87499 C 79.60163 212.53711 93.69161 208.03386 105.87687 200.02377 L 105.87687 200.02377 z" stroke-linecap="round" />
</g>
		<g transform="matrix(1 0 0 1 -48.17756499999999 97.23017386798477)"  >
<path style="stroke: none; stroke-width: 1; stroke-dasharray: none; stroke-linecap: butt; stroke-dashoffset: 0; stroke-linejoin: miter; stroke-miterlimit: 4; fill: rgb(0,23,24); fill-rule: nonzero; opacity: 1;"  paint-order="stroke"  transform=" translate(-76.82243500000001, -220.224685)" d="M 112.90457 205.42569 C 109.85743000000001 210.41557 105.07453000000001 214.32922 100.3151 217.62497 C 85.6474 227.46448999999998 68.08947 232.20317 50.71765 234.32503 C 47.388419999999996 234.60175 44.06755 234.88683 40.7403 235.02367999999998 C 43.974 234.16913 47.214059999999996 233.4628 50.44582 232.74817 C 70.76443 227.81261 97.84566 220.49431 112.90457 205.42569 L 112.90457 205.42569 z" stroke-linecap="round" />
</g>
		<g transform="matrix(1 0 0 1 62.48285000000001 78.6093369999451)"  >
<path style="stroke: none; stroke-width: 1; stroke-dasharray: none; stroke-linecap: butt; stroke-dashoffset: 0; stroke-linejoin: miter; stroke-miterlimit: 4; fill: rgb(0,23,24); fill-rule: nonzero; opacity: 1;"  paint-order="stroke"  transform=" translate(-187.48285, -201.60384813196032)" d="M 147.20697 193.93782 C 171.48378000000002 202.29861 196.9776 206.73065 222.59116 207.7551 C 224.30852000000002 207.82462999999998 226.03061 207.92096 227.75873 208.03608 C 226.05031000000002 208.2649 224.33588 208.47487999999998 222.6167 208.6581 C 197.68404 211.10426 169.17096 206.21823 147.20697 193.93782 L 147.20697 193.93782 z" stroke-linecap="round" />
</g>
		<g transform="matrix(1 0 0 1 60.940920000000006 88.3140425875495)"  >
<path style="stroke: none; stroke-width: 1; stroke-dasharray: none; stroke-linecap: butt; stroke-dashoffset: 0; stroke-linejoin: miter; stroke-miterlimit: 4; fill: rgb(0,23,24); fill-rule: nonzero; opacity: 1;"  paint-order="stroke"  transform=" translate(-185.94092, -211.3085537195647)" d="M 144.12311 200.02377 C 156.30829 208.03384000000003 170.39841 212.53712000000002 184.48255 215.87518 C 194.98984000000002 218.39531 206.08457 219.83484 216.80445 221.04524 C 220.44471000000001 221.37512 224.09516 221.65764000000001 227.75873 222.10893000000002 C 211.27091000000001 223.41229 194.32935 222.13695 178.36841 217.65704000000002 C 166.02689 214.13531 153.52373 208.9966 144.12311 200.02377 L 144.12311 200.02377 z" stroke-linecap="round" />
</g>
		<g transform="matrix(1 0 0 1 48.177535000000034 97.23017386798477)"  >
<path style="stroke: none; stroke-width: 1; stroke-dasharray: none; stroke-linecap: butt; stroke-dashoffset: 0; stroke-linejoin: miter; stroke-miterlimit: 4; fill: rgb(0,23,24); fill-rule: nonzero; opacity: 1;"  paint-order="stroke"  transform=" translate(-173.17753500000003, -220.224685)" d="M 137.0954 205.42569 C 152.15604000000002 220.49338 179.21688 227.8075 199.55406000000002 232.74829 C 202.78592000000003 233.4628 206.02598000000003 234.16913 209.25967000000003 235.02367999999998 C 205.93241000000003 234.88681999999997 202.61154000000002 234.60173999999998 199.28236000000004 234.32495999999998 C 181.91197000000005 232.20367 164.35133000000005 227.46408999999997 149.68490000000003 217.62497999999997 C 144.92535 214.32912 140.14278 210.41576 137.0954 205.42569 L 137.0954 205.42569 z" stroke-linecap="round" />
</g>
		<g transform="matrix(1 0 0 1 -8.917791022377457 17.72646088363271)"  >
<path style="stroke: none; stroke-width: 1; stroke-dasharray: none; stroke-linecap: butt; stroke-dashoffset: 0; stroke-linejoin: miter; stroke-miterlimit: 4; fill: rgb(0,23,24); fill-rule: nonzero; opacity: 1;"  paint-order="stroke"  transform=" translate(-116.08220897762254, -140.72097201564793)" d="M 105.71038 154.20015 C 114.143 159.62528 123.26691 158.35669000000001 122.32544 146.41580000000002 C 121.88227 142.12726 120.33923 137.86072000000001 118.27 133.77548000000002 C 116.22586 129.65777000000003 113.65512 125.68466000000001 111.37478 121.45381000000002 C 114.98184 124.61696000000002 118.27571 128.10762000000003 121.03175 132.15330000000003 C 125.08782000000001 138.21438000000003 128.27499 146.55947000000003 125.26753000000001 153.92460000000003 C 121.36349 162.93184 110.68889 160.94901 105.71038 154.20015 L 105.71038 154.20015 z" stroke-linecap="round" />
</g>
		<g transform="matrix(1 0 0 1 8.917750422120548 17.726563065197723)"  >
<path style="stroke: none; stroke-width: 1; stroke-dasharray: none; stroke-linecap: butt; stroke-dashoffset: 0; stroke-linejoin: miter; stroke-miterlimit: 4; fill: rgb(0,23,24); fill-rule: nonzero; opacity: 1;"  paint-order="stroke"  transform=" translate(-133.91775042212055, -140.72107419721294)" d="M 144.28958 154.20015 C 139.30929 160.94833 128.63721 162.93304 124.73247 153.92441 C 121.72486 146.55864 124.91234 138.21555 128.96813 132.15329 C 131.72426000000002 128.10762 135.01813 124.61697 138.62519 121.45381 C 136.34486 125.68466000000001 133.77412 129.65777 131.72997 133.77548000000002 C 129.66074 137.86072000000001 128.11771000000002 142.12726 127.67454000000001 146.41598000000002 C 126.73147 158.36075 135.86575 159.62245 144.28958 154.20015 L 144.28958 154.20015 z" stroke-linecap="round" />
</g>
		<g transform="matrix(1 0 0 1 -80.36497 -53.37765095069415)"  >
<path style="stroke: none; stroke-width: 1; stroke-dasharray: none; stroke-linecap: butt; stroke-dashoffset: 0; stroke-linejoin: miter; stroke-miterlimit: 4; fill: rgb(0,23,24); fill-rule: nonzero; opacity: 1;"  paint-order="stroke"  transform=" translate(-44.63502999999999, -69.61686018132107)" d="M 89.27004 96.9978 C 84.54942 88.13329 82.30784 80.73734 78.90223999999999 71.28952 C 77.219 66.61983 75.86491 58.454539999999994 74.51544999999999 53.67773 C 73.71669999999999 50.850379999999994 73.27824999999999 45.81034 72.06163 42.454919999999994 C 71.71105 37.77976999999999 71.17696 33.15773999999999 70.59257 28.679139999999997 C 70.33211 39.2677 70.3308 49.896469999999994 68.49083999999999 60.11995999999999 C 65.04917999999999 80.62158 53.44700999999999 98.30775 32.28260999999999 103.04417999999998 C 24.082329999999992 104.97882999999999 8.12064999999999 106.91417999999999 0.000019999999992137418 104.67904999999999 C 0.000019999999992137418 104.67904999999999 4.186109999999992 106.34226999999998 4.186049999999992 106.3419 C 25.12246999999999 115.06120999999999 48.09031999999999 110.29356 61.78827 91.58856999999999 C 63.97969 88.59275999999998 65.75323 85.42969 67.18804 82.14652 C 73.64684 88.73166 80.284 94.76812 89.27004 96.9978 z" stroke-linecap="round" />
</g>
		<g transform="matrix(1 0 0 1 80.364935 -53.37765095069415)"  >
<path style="stroke: none; stroke-width: 1; stroke-dasharray: none; stroke-linecap: butt; stroke-dashoffset: 0; stroke-linejoin: miter; stroke-miterlimit: 4; fill: rgb(0,23,24); fill-rule: nonzero; opacity: 1;"  paint-order="stroke"  transform=" translate(-205.364935, -69.61686018132107)" d="M 160.72992 96.9978 C 165.45055 88.13329 167.69212 80.73734 171.09771999999998 71.28952 C 172.78096 66.61983 174.13505999999998 58.454539999999994 175.48451999999997 53.67773 C 176.28325999999998 50.850379999999994 176.72169999999997 45.81034 177.93832999999998 42.454919999999994 C 178.28892 37.77976999999999 178.82299999999998 33.15773999999999 179.40739 28.679139999999997 C 179.66786 39.2677 179.66916999999998 49.896469999999994 181.50912 60.11995999999999 C 184.95078999999998 80.62158 196.55295999999998 98.30775 217.71735999999999 103.04417999999998 C 225.91762999999997 104.97882999999999 241.87931999999998 106.91417999999999 249.99994999999998 104.67904999999999 C 249.99994999999998 104.67904999999999 245.81384999999997 106.34226999999998 245.81391 106.3419 C 224.87749 115.06120999999999 201.90964 110.29356 188.21168999999998 91.58856999999999 C 186.02026999999998 88.59275999999998 184.24671999999998 85.42969 182.81190999999998 82.14652 C 176.35312 88.73166 169.71597 94.76812 160.72992 96.9978 z" stroke-linecap="round" />
</g>
		<g transform="matrix(1 0 0 1 -5.679252572885531 -53.33187613227541)"  >
<path style="stroke: none; stroke-width: 1; stroke-dasharray: none; stroke-linecap: butt; stroke-dashoffset: 0; stroke-linejoin: miter; stroke-miterlimit: 4; fill: rgb(0,23,24); fill-rule: nonzero; opacity: 1;"  paint-order="stroke"  transform=" translate(-119.32074742711447, -69.66263499973981)" d="M 113.19257 101.25912 C 106.07132 95.4022 102.69934 85.2162 104.03359 75.96605 C 105.15896000000001 70.27524 108.62342000000001 64.75300999999999 109.91359 59.261419999999994 C 110.45564 56.959559999999996 110.46894 54.39030999999999 110.05205 51.788529999999994 C 109.00112999999999 44.756699999999995 105.45201 37.398889999999994 101.67568 31.213419999999996 C 101.67579 31.213389999999997 107.33277 32.510459999999995 107.33277 32.510459999999995 C 115.46687 34.55582 121.67112999999999 39.911789999999996 127.00426999999999 45.954919999999994 C 138.57743 58.91306999999999 139.63418 75.13332 132.40972 90.43544 C 129.11191 97.4241 124.23487999999999 103.63818 118.15406999999999 108.11185 C 123.39168999999998 102.69402000000001 127.16609999999999 96.14788 129.56967 89.27278000000001 C 133.09685 79.03165000000001 133.44319000000002 67.95457000000002 128.55772 58.30060000000001 C 124.06084999999999 49.216710000000006 116.07870999999999 40.38052000000001 106.20597 37.454870000000014 C 106.20621 37.455610000000014 108.91217999999999 33.62506000000001 108.91247 33.62766000000001 C 114.32301 41.45627000000001 118.25254 51.13173000000001 115.92468 60.836010000000016 C 114.37552 66.80236000000002 110.88037 71.28592000000002 109.11153999999999 76.96352000000002 C 107.50319 85.1449 109.05632 93.64497 113.19257 101.25912 L 113.19257 101.25912 z" stroke-linecap="round" />
</g>
		<g transform="matrix(1 0 0 1 5.567888771755008 -51.189604606170434)"  >
<path style="stroke: none; stroke-width: 1; stroke-dasharray: none; stroke-linecap: butt; stroke-dashoffset: 0; stroke-linejoin: miter; stroke-miterlimit: 4; fill: rgb(0,23,24); fill-rule: nonzero; opacity: 1;"  paint-order="stroke"  transform=" translate(-130.567888771755, -71.80490652584479)" d="M 127.93893 104.6451 C 143.89254 90.9413 146.61804 64.97012000000001 132.28222 49.35137 C 127.6948 44.348040000000005 121.51432 40.65683 114.38392999999999 39.050470000000004 C 121.72384 38.41893 129.39289 41.317040000000006 135.16541999999998 46.37324 C 153.17294 61.93826 149.75497 94.48584 127.93893 104.6451 L 127.93893 104.6451 z" stroke-linecap="round" />
</g>
		<g transform="matrix(1 0 0 1 -0.00000499999998737621 98.08708386798477)"  >
<polygon style="stroke: none; stroke-width: 1; stroke-dasharray: none; stroke-linecap: butt; stroke-dashoffset: 0; stroke-linejoin: miter; stroke-miterlimit: 4; fill: rgb(0,23,24); fill-rule: nonzero; opacity: 1;"  paint-order="stroke"  points="-4.663075000000006,-6.668434999999988 -0.00001500000001897206,10.39101500000001 4.663074999999992,-6.668434999999988 -0.00001500000001897206,-10.391014999999982 " />
</g>
		<g transform="matrix(1 0 0 1 -35.538925000000006 9.217470587609824)"  >
<path style="stroke: none; stroke-width: 1; stroke-dasharray: none; stroke-linecap: butt; stroke-dashoffset: 0; stroke-linejoin: miter; stroke-miterlimit: 4; fill: rgb(80,249,249); fill-rule: nonzero; opacity: 1;"  paint-order="stroke"  transform=" translate(-89.461075, -132.21198171962504)" d="M 61.96585 119.44413 C 80.81924000000001 116.14219 101.16532000000001 125.63078 111.31219 141.77097 C 112.34215 143.37915 113.31113 145.45565 115.4569 145.23662000000002 C 116.07741 145.1765 116.73616 144.83463 116.9563 144.17417 C 116.63648 145.66106 114.59993 145.96238 113.39975 145.30018 C 112.07822999999999 144.62608 111.30602 143.35496 110.48026 142.34207 C 99.16377 127.48885 80.60279 118.91713 61.96585 119.44413 L 61.96585 119.44413 z" stroke-linecap="round" />
</g>
		<g transform="matrix(1 0 0 1 -10.339855 1.6898038679847787)"  >
<path style="stroke: none; stroke-width: 1; stroke-dasharray: none; stroke-linecap: butt; stroke-dashoffset: 0; stroke-linejoin: miter; stroke-miterlimit: 4; fill: rgb(80,249,249); fill-rule: nonzero; opacity: 1;"  paint-order="stroke"  transform=" translate(-114.660145, -124.684315)" d="M 105.23186 115.52941 C 114.3016 117.13589 122.22491 124.81486 124.08843 133.83922 C 119.52032 126.09516 113.11369 119.85902 105.23186 115.52941 L 105.23186 115.52941 z" stroke-linecap="round" />
</g>
		<g transform="matrix(1 0 0 1 -48.14313999999999 -74.17196113201521)"  >
<path style="stroke: none; stroke-width: 1; stroke-dasharray: none; stroke-linecap: butt; stroke-dashoffset: 0; stroke-linejoin: miter; stroke-miterlimit: 4; fill: rgb(80,249,249); fill-rule: nonzero; opacity: 1;"  paint-order="stroke"  transform=" translate(-76.85686000000001, -48.82255)" d="M 94.97083 89.89214 C 87.23559 75.73428 82.40842 59.98269 80.49955 43.9545 C 78.3777 23.98475 82.20844 13.69739 58.74289 7.75296 C 62.70149 8.42255 66.67078000000001 9.31522 70.39035 11.06575 C 83.30790999999999 16.890169999999998 80.86821 32.14656 82.53903 43.71312 C 84.37566 59.62017 88.74036 75.12339 94.97083 89.89214 L 94.97083 89.89214 z" stroke-linecap="round" />
</g>
		<g transform="matrix(1 0 0 1 -3.0689934892084096 -60.87852613201522)"  >
<path style="stroke: none; stroke-width: 1; stroke-dasharray: none; stroke-linecap: butt; stroke-dashoffset: 0; stroke-linejoin: miter; stroke-miterlimit: 4; fill: rgb(80,249,249); fill-rule: nonzero; opacity: 1;"  paint-order="stroke"  transform=" translate(-121.93100651079159, -62.115985)" d="M 124.85067 77.2916 C 125.92715 66.57441 123.24983999999999 55.897450000000006 117.27156 46.94037 C 125.67957 54.08849 128.90054 67.02984 124.85067 77.2916 L 124.85067 77.2916 z" stroke-linecap="round" />
</g>
		<g transform="matrix(1 0 0 1 -6.2922510644077505 -45.63844113201523)"  >
<path style="stroke: none; stroke-width: 1; stroke-dasharray: none; stroke-linecap: butt; stroke-dashoffset: 0; stroke-linejoin: miter; stroke-miterlimit: 4; fill: rgb(80,249,249); fill-rule: nonzero; opacity: 1;"  paint-order="stroke"  transform=" translate(-118.70774893559225, -77.35606999999999)" d="M 117.04243 90.11581 C 117.83315999999999 81.55879999999999 118.49507 73.16919 119.08941 64.59633 C 121.35108 72.9557 120.59687 82.22146 117.04243 90.11581 L 117.04243 90.11581 z" stroke-linecap="round" />
</g>
		<g transform="matrix(1 0 0 1 12.17841316484504 -53.82163113201523)"  >
<path style="stroke: none; stroke-width: 1; stroke-dasharray: none; stroke-linecap: butt; stroke-dashoffset: 0; stroke-linejoin: miter; stroke-miterlimit: 4; fill: rgb(80,249,249); fill-rule: nonzero; opacity: 1;"  paint-order="stroke"  transform=" translate(-137.17841316484504, -69.17287999999999)" d="M 136.49077 84.65921 C 138.9617 74.3172 138.22531 63.60311 134.3935 53.68655 C 140.9487 62.3453 141.80829 75.194 136.49077 84.65921 L 136.49077 84.65921 z" stroke-linecap="round" />
</g>
		<g transform="matrix(1 0 0 1 -35.103885000000005 50.5330519763597)"  >
<path style="stroke: none; stroke-width: 1; stroke-dasharray: none; stroke-linecap: butt; stroke-dashoffset: 0; stroke-linejoin: miter; stroke-miterlimit: 4; fill: rgb(80,249,249); fill-rule: nonzero; opacity: 1;"  paint-order="stroke"  transform=" translate(-89.896115, -173.52756310837492)" d="M 106.54333 170.37613 C 96.86695 176.55534 84.2552 178.34217999999998 73.24889999999999 175.06452 C 84.59941 175.44518 95.74168 173.88737 106.54333 170.37613 L 106.54333 170.37613 z" stroke-linecap="round" />
</g>
		<g transform="matrix(1 0 0 1 -48.82239 38.12386251757553)"  >
<path style="stroke: none; stroke-width: 1; stroke-dasharray: none; stroke-linecap: butt; stroke-dashoffset: 0; stroke-linejoin: miter; stroke-miterlimit: 4; fill: rgb(80,249,249); fill-rule: nonzero; opacity: 1;"  paint-order="stroke"  transform=" translate(-76.17761, -161.11837364959075)" d="M 90.49928 171.43002 C 77.63231 172.89914000000002 64.4485 163.35019000000003 61.855940000000004 150.65739000000002 C 67.28269 161.98218 78.045 169.79985 90.49928 171.43002 L 90.49928 171.43002 z" stroke-linecap="round" />
</g>
		<g transform="matrix(1 0 0 1 -61.335775 22.410393867984794)"  >
<path style="stroke: none; stroke-width: 1; stroke-dasharray: none; stroke-linecap: butt; stroke-dashoffset: 0; stroke-linejoin: miter; stroke-miterlimit: 4; fill: rgb(80,249,249); fill-rule: nonzero; opacity: 1;"  paint-order="stroke"  transform=" translate(-63.664225, -145.404905)" d="M 69.10235 155.76186 C 62.60027 151.06971000000001 58.38658 143.06772 58.2261 135.04795000000001 C 59.59573 138.21195 61.51569 142.70412000000002 63.12934 145.68577000000002 C 64.65405 148.69484 67.28644 152.8593 69.10235 155.76186 L 69.10235 155.76186 z" stroke-linecap="round" />
</g>
		<g transform="matrix(1 0 0 1 35.538905 9.217701737308175)"  >
<path style="stroke: none; stroke-width: 1; stroke-dasharray: none; stroke-linecap: butt; stroke-dashoffset: 0; stroke-linejoin: miter; stroke-miterlimit: 4; fill: rgb(80,249,249); fill-rule: nonzero; opacity: 1;"  paint-order="stroke"  transform=" translate(-160.538905, -132.2122128693234)" d="M 188.03415 119.44413 C 169.39786 118.91682 150.83565000000002 127.48917 139.51975000000002 142.34212 C 138.69397 143.35495 137.92177 144.62607 136.60027000000002 145.30019 C 135.39913 145.96361 133.36277 145.66099999999997 133.04366000000002 144.17417999999998 C 133.26383 144.83462999999998 133.92258 145.17649999999998 134.54311 145.23658999999998 C 136.68973000000003 145.45493999999997 137.65865000000002 143.37873 138.68781 141.77102999999997 C 148.83411 125.63105 169.18141 116.1419 188.03415 119.44413 L 188.03415 119.44413 z" stroke-linecap="round" />
</g>
		<g transform="matrix(1 0 0 1 10.339974999999981 1.6899188679847725)"  >
<path style="stroke: none; stroke-width: 1; stroke-dasharray: none; stroke-linecap: butt; stroke-dashoffset: 0; stroke-linejoin: miter; stroke-miterlimit: 4; fill: rgb(80,249,249); fill-rule: nonzero; opacity: 1;"  paint-order="stroke"  transform=" translate(-135.33997499999998, -124.68442999999999)" d="M 144.76814 115.52941 C 136.88622999999998 119.85904 130.47968999999998 126.09521 125.91180999999999 133.83945 C 127.77508 124.81501 135.69823 117.1359 144.76814 115.52941 L 144.76814 115.52941 z" stroke-linecap="round" />
</g>
		<g transform="matrix(1 0 0 1 48.14302999999998 -74.17204113201522)"  >
<path style="stroke: none; stroke-width: 1; stroke-dasharray: none; stroke-linecap: butt; stroke-dashoffset: 0; stroke-linejoin: miter; stroke-miterlimit: 4; fill: rgb(80,249,249); fill-rule: nonzero; opacity: 1;"  paint-order="stroke"  transform=" translate(-173.14302999999998, -48.822469999999996)" d="M 155.02916 89.89214 C 161.25950999999998 75.12385 165.62442 59.619879999999995 167.46086 43.71302 C 169.12932 32.15302 166.69661 16.88233 179.60981999999998 11.065890000000003 C 183.32923 9.315230000000003 187.29852999999997 8.422560000000002 191.25689999999997 7.752800000000003 C 167.76968999999997 13.709320000000004 171.62969999999999 23.995930000000005 169.50066999999999 43.95464 C 167.59166 59.98249 162.76431 75.7346 155.02916 89.89214 L 155.02916 89.89214 z" stroke-linecap="round" />
</g>
		<g transform="matrix(1 0 0 1 35.103909999999985 50.53298671597619)"  >
<path style="stroke: none; stroke-width: 1; stroke-dasharray: none; stroke-linecap: butt; stroke-dashoffset: 0; stroke-linejoin: miter; stroke-miterlimit: 4; fill: rgb(80,249,249); fill-rule: nonzero; opacity: 1;"  paint-order="stroke"  transform=" translate(-160.10390999999998, -173.5274978479914)" d="M 143.45667 170.37613 C 154.25838 173.88741 165.40062 175.44514999999998 176.75115 175.0641 C 165.74493 178.34212 153.13316 176.55544 143.45667 170.37613 L 143.45667 170.37613 z" stroke-linecap="round" />
</g>
		<g transform="matrix(1 0 0 1 48.82233000000002 38.12377352249658)"  >
<path style="stroke: none; stroke-width: 1; stroke-dasharray: none; stroke-linecap: butt; stroke-dashoffset: 0; stroke-linejoin: miter; stroke-miterlimit: 4; fill: rgb(80,249,249); fill-rule: nonzero; opacity: 1;"  paint-order="stroke"  transform=" translate(-173.82233000000002, -161.1182846545118)" d="M 159.50073 171.43002 C 171.95555000000002 169.79991 182.71739 161.98167 188.14393 150.65722000000002 C 185.5515 163.3504 172.36751 172.89908 159.50073 171.43002 L 159.50073 171.43002 z" stroke-linecap="round" />
</g>
		<g transform="matrix(1 0 0 1 61.33569499999999 22.410323867984772)"  >
<path style="stroke: none; stroke-width: 1; stroke-dasharray: none; stroke-linecap: butt; stroke-dashoffset: 0; stroke-linejoin: miter; stroke-miterlimit: 4; fill: rgb(80,249,249); fill-rule: nonzero; opacity: 1;"  paint-order="stroke"  transform=" translate(-186.335695, -145.404835)" d="M 180.89766 155.76186 C 182.72612 152.83890000000002 185.33728 148.70966 186.87068 145.68573 C 188.47702999999998 142.71967 190.41394 138.19 191.77373 135.04781 C 191.61342 143.06758 187.39986 151.06963 180.89766 155.76186 L 180.89766 155.76186 z" stroke-linecap="round" />
</g>
		<g transform="matrix(1 0 0 1 -95.29734579029085 -69.43792920791617)"  >
<path style="stroke: none; stroke-width: 1; stroke-dasharray: none; stroke-linecap: butt; stroke-dashoffset: 0; stroke-linejoin: miter; stroke-miterlimit: 4; fill: rgb(80,249,249); fill-rule: nonzero; opacity: 1;"  paint-order="stroke"  transform=" translate(-29.702654209709156, -53.55658192409905)" d="M 32.70371 26.32778 C 31.29258 29.74987 30.92972 33.4985 30.58207 37.18375 C 28.80556 32.09881 29.09552 26.324840000000002 31.37252 21.44346 C 26.34493 27.17782 24.482870000000002 35.068490000000004 24.14322 42.687160000000006 C 23.803569999999997 50.30583000000001 24.80841 57.926210000000005 24.6985 65.55166 C 24.58859 73.1771 23.23043 81.09769 18.74116 87.26259 C 24.72006 81.70328 27.471220000000002 73.57533000000001 29.80496 65.75186000000001 C 32.75902 55.84886000000001 35.40216 45.853170000000006 37.729690000000005 35.78450000000001 C 38.328190000000006 33.19541000000001 38.905860000000004 30.601510000000008 39.46258 28.00312000000001 C 39.82688 26.30279000000001 41.23245 22.95872000000001 40.41006 21.29113000000001 C 38.15767 16.72394 33.54143 24.29625 32.70371 26.32778 z" stroke-linecap="round" />
</g>
		<g transform="matrix(1 0 0 1 95.29735579029082 -69.43792920791617)"  >
<path style="stroke: none; stroke-width: 1; stroke-dasharray: none; stroke-linecap: butt; stroke-dashoffset: 0; stroke-linejoin: miter; stroke-miterlimit: 4; fill: rgb(80,249,249); fill-rule: nonzero; opacity: 1;"  paint-order="stroke"  transform=" translate(-220.29735579029082, -53.55658192409905)" d="M 217.2963 26.32778 C 218.70742 29.74987 219.07029 33.4985 219.41793 37.18375 C 221.19445000000002 32.09881 220.90449 26.324840000000002 218.62748000000002 21.44346 C 223.65507000000002 27.17782 225.51714 35.068490000000004 225.85679000000002 42.687160000000006 C 226.19644000000002 50.30583000000001 225.19160000000002 57.926210000000005 225.30151 65.55166 C 225.41142000000002 73.1771 226.76959 81.09769 231.25885 87.26259 C 225.27994999999999 81.70328 222.52879 73.57533000000001 220.19504999999998 65.75186000000001 C 217.24098999999998 55.84886000000001 214.59785 45.853170000000006 212.27031999999997 35.78450000000001 C 211.67181999999997 33.19541000000001 211.09413999999998 30.601510000000008 210.53742999999997 28.00312000000001 C 210.17313 26.30279000000001 208.76755999999997 22.95872000000001 209.58994999999996 21.29113000000001 C 211.84233 16.72394 216.45857 24.29625 217.2963 26.32778 z" stroke-linecap="round" />
</g>
</g>
</g>
</g>
</g>
<g transform="matrix(1.9211538461538462 0 0 1.9211538461538462 644.6674865674051 879.6326449691514)" id="text-logo"  >
<g style=""  paint-order="stroke"   >
		<g transform="matrix(1 0 0 1 0 0)" id="text-logo-path-0"  >
<path style="stroke: rgb(165,166,165); stroke-width: 1.7725371804079384; stroke-dasharray: none; stroke-linecap: butt; stroke-dashoffset: 0; stroke-linejoin: miter; stroke-miterlimit: 4; fill: rgb(12,124,164); fill-rule: nonzero; opacity: 1;"  paint-order="stroke"  transform=" translate(-298.59499999999997, 55.13)" d="M 4.77 -50.66 L 3.28 0 L 31.89 0 L 30.84 -35.91 L 39.34 -36.5 L 54.98 0 L 86.72 0 L 63.47 -40.98 C 77.18 -45.89 83.29 -54.53 83.29 -70.33 C 83.29 -89.25 70.18 -101.32 41.27 -101.32 L 3.28 -101.32 Z M 30.54 -53.19 L 31.29 -80.46 L 39.63 -80.46 C 48.42 -80.46 54.24 -75.84 54.24 -68.69 C 54.24 -59.15 46.93 -52.89 35.76 -52.89 C 33.82 -52.89 31.89 -53.04 30.54 -53.19 Z M 106.39 -70.33 L 108.77 -51.26 C 117.41 -54.24 126.95 -56.47 136.33 -56.47 C 142.74 -56.47 146.32 -54.68 146.32 -48.72 L 146.32 -47.83 L 133.65 -45.59 C 112.64 -41.87 101.92 -33.38 101.92 -20.71 C 101.92 -5.81 109.51 1.49 125.31 1.49 C 134.25 1.49 141.7 -3.72 147.81 -11.77 L 147.81 0 L 172.99 0 L 169.56 -53.64 C 168.37 -71.82 161.81 -78.97 146.17 -78.97 C 129.93 -78.97 116.37 -74.65 106.39 -70.33 Z M 125.31 -23.09 C 125.31 -29.2 133.5 -32.33 146.32 -34.27 L 146.32 -22.2 C 142.44 -18.77 137.68 -16.39 132.01 -16.39 C 127.99 -16.39 125.31 -19.07 125.31 -23.09 Z M 216.65 -110.26 L 191.46 -110.26 L 192.95 -53.64 L 192.95 0 L 200.85 1.49 L 207.71 -3.43 C 215.6 0 222.61 1.49 230.06 1.49 C 251.36 1.49 267.9 -20.86 267.9 -47.68 C 267.9 -65.41 261.94 -78.97 242.12 -78.97 C 230.8 -78.97 221.86 -74.2 215.01 -67.8 Z M 218.73 -22.2 L 216.79 -52.3 C 220.07 -56.17 224.1 -57.96 230.06 -57.96 C 236.91 -57.96 244.06 -56.47 244.06 -43.66 C 244.06 -33.08 239 -18.92 226.48 -18.92 C 224.24 -18.92 221.71 -19.82 218.73 -22.2 Z M 311.56 -110.26 L 286.38 -110.26 L 287.87 -53.64 L 287.87 0 L 295.76 1.49 L 302.62 -3.43 C 310.52 0 317.52 1.49 324.97 1.49 C 346.28 1.49 362.81 -20.86 362.81 -47.68 C 362.81 -65.41 356.85 -78.97 337.04 -78.97 C 325.71 -78.97 316.77 -74.2 309.92 -67.8 Z M 313.64 -22.2 L 311.71 -52.3 C 314.99 -56.17 319.01 -57.96 324.97 -57.96 C 331.82 -57.96 338.97 -56.47 338.97 -43.66 C 338.97 -33.08 333.91 -18.92 321.39 -18.92 C 319.16 -18.92 316.62 -19.82 313.64 -22.2 Z M 406.17 -77.48 L 383.97 -77.48 L 383.97 0 L 410.64 0 Z M 381.29 -97.3 C 381.29 -88.51 387.25 -82.69 396.19 -82.69 C 404.98 -82.69 410.94 -88.51 410.94 -97.3 C 410.94 -105.94 404.98 -111.75 396.19 -111.75 C 387.25 -111.75 381.29 -105.94 381.29 -97.3 Z M 472.78 1.49 C 477.1 1.49 482.01 1.19 486.93 0.6 L 483.06 -22.35 C 480.38 -21.16 475.91 -20.71 471.29 -20.71 C 463.54 -20.71 460.71 -23.84 460.71 -32.18 L 460.71 -59.9 L 481.57 -59.9 L 481.57 -77.48 L 460.71 -77.48 L 460.71 -91.78 L 427.03 -70.03 L 427.03 -59.9 L 438.21 -59.9 L 436.87 -26.37 C 436.87 -5.66 451.02 1.49 472.78 1.49 Z M 498.41 0 L 524.48 0 L 546.38 -37.7 L 564.41 -0.15 L 593.91 0 L 568.44 -50.66 L 592.42 -101.32 L 566.35 -101.32 L 549.21 -66.75 L 531.78 -101.17 L 502.28 -101.32 L 528.21 -52.6 Z" stroke-linecap="round" />
</g>
</g>
</g>
</svg>